<svg width="34" height="34" viewBox="0 0 34 34" fill="none" xmlns="http://www.w3.org/2000/svg">
<path fill-rule="evenodd" clip-rule="evenodd" d="M21.8166 2.83301C22.0999 4.39134 21.3916 5.94967 20.5416 7.08301C19.6916 8.21634 18.1333 9.20801 16.5749 9.06634C16.2916 7.50801 16.9999 6.09134 17.8499 4.95801C18.8416 3.82467 20.3999 2.97467 21.8166 2.83301ZM26.3499 27.483C27.0583 26.3497 27.4833 25.6413 28.0499 24.3663C23.6583 22.6663 22.9499 16.433 27.3416 14.1663C26.0666 12.4663 24.2249 11.6163 22.3833 11.6163C21.1083 11.6163 20.2583 11.8997 19.4083 12.183C18.6999 12.4663 18.1333 12.608 17.4249 12.608C16.5749 12.608 16.0083 12.3247 15.1583 12.0413C14.3083 11.758 13.4583 11.4747 12.4666 11.4747C10.4833 11.4747 8.35827 12.608 7.08327 14.733C5.24161 17.5663 5.52494 23.0913 8.49994 27.6247C9.77494 29.3247 11.1916 31.1663 13.0333 31.1663C13.8833 31.1663 14.3083 30.883 14.8749 30.7413C15.5833 30.458 16.2916 30.1747 17.4249 30.1747C18.6999 30.1747 19.2666 30.458 19.9749 30.7413C20.5416 31.0247 20.9666 31.1663 21.8166 31.1663C23.7999 31.1663 25.2166 29.0413 26.3499 27.483Z" fill="black"/>
</svg>
