<svg width="30" height="30" viewBox="0 0 30 30" fill="none" xmlns="http://www.w3.org/2000/svg">
<path d="M14.0553 5.21714C14.3446 4.38474 14.4893 3.96854 14.7032 3.85319C14.8884 3.75336 15.1113 3.75336 15.2965 3.85319C15.5104 3.96854 15.6551 4.38474 15.9444 5.21713L17.8573 10.7201C17.9396 10.957 17.9808 11.0755 18.055 11.1637C18.1205 11.2416 18.2041 11.3024 18.2985 11.3406C18.4053 11.3839 18.5307 11.3865 18.7814 11.3916L24.6062 11.5103C25.4873 11.5282 25.9278 11.5372 26.1036 11.705C26.2558 11.8503 26.3247 12.0623 26.2869 12.2692C26.2433 12.5083 25.8922 12.7745 25.19 13.3069L20.5474 16.8267C20.3476 16.9782 20.2476 17.054 20.1867 17.1518C20.1328 17.2382 20.1009 17.3365 20.0936 17.4381C20.0855 17.553 20.1218 17.6731 20.1944 17.9131L21.8815 23.4895C22.1367 24.333 22.2642 24.7547 22.159 24.9738C22.0679 25.1634 21.8875 25.2944 21.679 25.3225C21.4382 25.3549 21.0765 25.1032 20.3531 24.5999L15.571 21.2722C15.3652 21.129 15.2622 21.0573 15.1504 21.0296C15.0515 21.005 14.9482 21.005 14.8494 21.0296C14.7375 21.0573 14.6346 21.129 14.4287 21.2722L9.64659 24.5999C8.92323 25.1032 8.56156 25.3549 8.32068 25.3225C8.11222 25.2944 7.93185 25.1634 7.84074 24.9738C7.73547 24.7547 7.86306 24.333 8.11825 23.4895L9.80531 17.9131C9.87794 17.6731 9.91425 17.553 9.90608 17.4381C9.89885 17.3365 9.86692 17.2382 9.81307 17.1518C9.7521 17.054 9.65216 16.9782 9.4523 16.8267L4.80975 13.307C4.1075 12.7745 3.75638 12.5083 3.71278 12.2692C3.67505 12.0623 3.74395 11.8503 3.89611 11.705C4.07192 11.5372 4.51245 11.5282 5.39352 11.5103L11.2183 11.3916C11.469 11.3865 11.5944 11.3839 11.7012 11.3406C11.7956 11.3024 11.8792 11.2416 11.9447 11.1637C12.0189 11.0755 12.0601 10.957 12.1425 10.7201L14.0553 5.21714Z" fill="#F8BC48"/>
</svg>
