<svg width="108" height="108" viewBox="0 0 108 108" fill="none" xmlns="http://www.w3.org/2000/svg">
<path d="M54 108C83.7 108 108 83.7 108 54C108 24.3 83.7 0 54 0C24.3 0 0 24.3 0 54C0 83.7 24.3 108 54 108Z" fill="#04B155"/>
<path d="M70.3803 38.7865C65.8537 34.2599 61.4203 34.1432 56.777 38.7865L53.9537 41.6099C53.7203 41.8432 53.627 42.2165 53.7203 42.5432C55.4937 48.7265 60.4403 53.6732 66.6237 55.4465C66.717 55.4699 66.8103 55.4932 66.9037 55.4932C67.1603 55.4932 67.3937 55.3999 67.5803 55.2132L70.3803 52.3899C72.6903 50.1032 73.8103 47.8865 73.8103 45.6465C73.8337 43.3365 72.7137 41.0965 70.3803 38.7865Z" fill="white"/>
<path d="M62.4229 57.5896C61.7463 57.2624 61.0929 56.9353 60.4629 56.5614C59.9496 56.2576 59.4596 55.9304 58.9696 55.5799C58.5729 55.3228 58.1063 54.9489 57.6629 54.575C57.6163 54.5516 57.4529 54.4114 57.2663 54.2244C56.4963 53.5701 55.6329 52.7288 54.8629 51.794C54.7929 51.7473 54.6763 51.5837 54.5129 51.3734C54.2796 51.0929 53.8829 50.6255 53.5329 50.088C53.2529 49.7375 52.9263 49.2234 52.6229 48.7093C52.2496 48.0783 51.9229 47.4473 51.5963 46.793C51.3925 46.3557 51.216 45.9274 51.0554 45.514C50.9233 45.1739 50.4855 45.0778 50.2277 45.3359L36.1263 59.4592C35.8229 59.763 35.5429 60.3472 35.4729 60.7445L34.2129 69.6949C33.9796 71.2841 34.4229 72.7797 35.4029 73.7846C36.2429 74.6025 37.4096 75.0465 38.6696 75.0465C38.9496 75.0465 39.2296 75.0232 39.5096 74.9764L48.4696 73.7145C48.8896 73.6444 49.4729 73.3639 49.7529 73.0601L63.8488 58.9425C64.1079 58.683 64.0091 58.2409 63.6677 58.1068C63.2648 57.9487 62.8574 57.7782 62.4229 57.5896Z" fill="white"/>
</svg>
