<svg width="23" height="29" viewBox="0 0 23 29" fill="none" xmlns="http://www.w3.org/2000/svg">
<path fill-rule="evenodd" clip-rule="evenodd" d="M16.2616 0C16.5516 1.59499 15.8266 3.18998 14.9566 4.34998C14.0866 5.50997 12.4917 6.52496 10.8967 6.37996C10.6067 4.78497 11.3317 3.33498 12.2017 2.17499C13.2167 1.01499 14.8116 0.144999 16.2616 0ZM20.9016 25.2299C21.6266 24.0699 22.0616 23.3449 22.6416 22.0399C18.1466 20.2999 17.4216 13.9199 21.9166 11.5999C20.6116 9.85994 18.7266 8.98995 16.8416 8.98995C15.5366 8.98995 14.6666 9.27995 13.7966 9.56995C13.0717 9.85994 12.4917 10.0049 11.7667 10.0049C10.8967 10.0049 10.3167 9.71494 9.44667 9.42495C8.57668 9.13495 7.70668 8.84495 6.69169 8.84495C4.6617 8.84495 2.48671 10.0049 1.18172 12.1799C-0.703268 15.0799 -0.413269 20.7349 2.63171 25.3749C3.93671 27.1148 5.3867 28.9998 7.27169 28.9998C8.14168 28.9998 8.57668 28.7098 9.15667 28.5648C9.88167 28.2748 10.6067 27.9848 11.7667 27.9848C13.0717 27.9848 13.6517 28.2748 14.3766 28.5648C14.9566 28.8548 15.3916 28.9998 16.2616 28.9998C18.2916 28.9998 19.7416 26.8248 20.9016 25.2299Z" fill="black"/>
</svg>
