<svg width="121" height="140" viewBox="0 0 121 140" fill="none" xmlns="http://www.w3.org/2000/svg">
<path d="M35.0022 125.109C35.0022 126.835 35.0142 128.441 35.0022 130.047C34.9543 135.584 30.6261 139.946 25.111 139.982C21.6701 140.006 18.2411 140.006 14.8001 139.982C9.46486 139.934 5.10073 135.56 5.02879 130.239C5.0168 129.568 4.99282 128.884 5.02879 128.213C5.17266 125.673 5.17266 123.408 2.6429 121.574C0.640678 120.124 0.00524041 117.547 0.0172298 114.983C0.0292192 111.339 0.0891661 107.696 0.00524041 104.053C-0.0906746 100.134 1.13224 96.7183 3.49415 93.6383C5.60428 90.8819 7.66646 88.1015 9.98041 85.0215C8.32587 85.0215 7.00704 85.0215 5.68821 85.0215C2.24725 85.0215 0.0172298 83.0321 0.0292192 79.988C0.0412085 76.956 2.25924 75.0385 5.76014 75.0385C9.04523 75.0385 12.3183 75.0025 15.6034 75.0624C16.5746 75.0744 17.0901 74.7868 17.5097 73.8999C19.1523 70.4844 20.8428 67.0928 22.5693 63.7132C25.4827 58.0086 30.1226 55.0484 36.5848 55.0484C52.207 55.0484 67.8172 55.0484 83.4393 55.0484C89.8297 55.0484 94.4696 57.9367 97.383 63.5694C99.1454 66.9849 100.848 70.4245 102.514 73.888C102.934 74.7628 103.45 75.0624 104.421 75.0504C107.85 74.9905 111.291 75.0145 114.732 75.0265C117.777 75.0385 119.983 77.1237 119.995 79.976C120.007 82.8643 117.825 84.9735 114.804 84.9975C113.353 85.0095 111.902 84.9975 110.212 84.9975C110.511 85.4889 110.679 85.8244 110.907 86.136C112.777 88.6408 114.624 91.1455 116.53 93.6263C118.892 96.7063 120.115 100.122 120.019 104.041C119.935 107.624 119.995 111.219 119.995 114.815C119.995 118.218 118.58 120.903 115.955 123.048C115.451 123.456 115.091 124.27 115.031 124.93C114.84 127.41 115.115 129.963 114.636 132.372C113.736 136.926 109.708 139.946 105.056 139.97C101.675 139.994 98.2942 139.994 94.9012 139.97C89.3861 139.934 85.0579 135.56 85.0099 130.023C84.998 128.417 85.0099 126.811 85.0099 125.097C68.3447 125.109 51.7634 125.109 35.0022 125.109ZM95.9802 83.2358C93.4385 78.1544 90.9327 73.2048 88.4629 68.2313C87.4678 66.2179 85.9091 65.0554 83.6791 65.0554C67.9011 65.0315 52.1231 65.0315 36.357 65.0554C34.4028 65.0554 32.7842 65.8824 31.873 67.6561C29.2234 72.8213 26.6337 78.0226 24.02 83.2238C25.4467 84.4942 27.0293 85.0455 28.8996 85.0455C49.6173 85.0215 70.3469 85.0215 91.0646 85.0455C92.9349 85.0574 94.5295 84.5181 95.9802 83.2358ZM27.4969 107.48C27.4729 103.37 23.96 99.9421 19.8597 100.026C15.9032 100.098 12.5222 103.513 12.5222 107.456C12.5222 111.567 15.9991 115.042 20.0755 114.995C24.1399 114.947 27.5209 111.519 27.4969 107.48ZM99.9008 100.026C95.8843 100.05 92.4434 103.561 92.5033 107.552C92.5633 111.627 95.9682 115.006 99.9967 114.995C104.037 114.983 107.454 111.579 107.478 107.54C107.49 103.454 104.013 100.002 99.9008 100.026Z" fill="white"/>
<path d="M14.3086 45.0534C4.51325 45.0534 -2.23677 35.7655 0.856494 26.3937C3.29034 19.0113 7.40269 12.5157 11.9706 6.30782C13.2295 4.59404 15.3517 4.58206 16.6105 6.29583C21.2504 12.6476 25.5186 19.239 27.8566 26.8251C30.6981 35.9932 23.8881 45.0534 14.3086 45.0534Z" fill="white"/>
<path d="M105.716 45.1493C96.1121 45.0654 89.2901 35.9932 92.1316 26.8371C94.4935 19.251 98.7617 12.6715 103.378 6.30782C104.565 4.67794 106.687 4.53412 107.814 6.08011C112.849 12.9112 117.597 19.9701 119.635 28.3591C121.398 35.6337 116.17 43.2798 108.797 44.7419C107.778 44.9336 106.747 45.0055 105.716 45.1493Z" fill="white"/>
<path d="M60.0481 40.0559C50.5045 40.1998 43.3229 30.5643 46.4641 21.576C49.0538 14.1816 53.0822 7.61412 57.6622 1.34627C58.9091 -0.35552 60.9712 -0.475364 62.1822 1.1665C67.0019 7.65007 71.402 14.4213 73.68 22.2591C76.3057 31.2234 69.4237 40.044 60.0481 40.0559Z" fill="white"/>
<path d="M95.9802 83.2358C94.5175 84.5181 92.9349 85.0574 91.0646 85.0455C70.3469 85.0215 49.6173 85.0215 28.8996 85.0455C27.0293 85.0455 25.4467 84.4942 24.02 83.2238C26.6336 78.0226 29.2234 72.8213 31.873 67.6561C32.7842 65.8704 34.4028 65.0554 36.357 65.0554C52.1351 65.0315 67.9131 65.0315 83.6791 65.0554C85.9091 65.0554 87.4678 66.2179 88.4629 68.2313C90.9327 73.2048 93.4385 78.1664 95.9802 83.2358Z" fill="#26328F"/>
<path d="M27.4969 107.48C27.5209 111.507 24.1399 114.947 20.0755 114.995C15.9991 115.042 12.5102 111.579 12.5222 107.456C12.5222 103.513 15.9032 100.098 19.8597 100.026C23.96 99.9541 27.4729 103.382 27.4969 107.48Z" fill="#26328F"/>
<path d="M99.9007 100.026C104.013 100.002 107.49 103.454 107.478 107.54C107.454 111.579 104.037 114.983 99.9967 114.995C95.9682 115.006 92.5632 111.627 92.5033 107.552C92.4434 103.561 95.8843 100.05 99.9007 100.026Z" fill="#26328F"/>
</svg>
