<svg width="22" height="22" viewBox="0 0 22 22" fill="none" xmlns="http://www.w3.org/2000/svg">
<path d="M19.1675 10.1934C19.1675 14.6759 15.9133 18.8743 11.4675 20.1026C11.165 20.1851 10.835 20.1851 10.5325 20.1026C6.08665 18.8743 2.83249 14.6759 2.83249 10.1934V6.16926C2.83249 5.41759 3.40084 4.56509 4.10667 4.28093L9.21248 2.19096C10.3583 1.72346 11.6508 1.72346 12.7967 2.19096L17.9025 4.28093C18.5992 4.56509 19.1767 5.41759 19.1767 6.16926L19.1675 10.1934Z" stroke="black" stroke-width="1.5" stroke-linecap="round" stroke-linejoin="round"/>
<path d="M11 11.4582C12.0125 11.4582 12.8333 10.6374 12.8333 9.62484C12.8333 8.61232 12.0125 7.7915 11 7.7915C9.98748 7.7915 9.16667 8.61232 9.16667 9.62484C9.16667 10.6374 9.98748 11.4582 11 11.4582Z" stroke="black" stroke-width="1.5" stroke-miterlimit="10" stroke-linecap="round" stroke-linejoin="round"/>
<path d="M11 11.458V14.208" stroke="black" stroke-width="1.5" stroke-miterlimit="10" stroke-linecap="round" stroke-linejoin="round"/>
</svg>
