<svg width="67" height="83" viewBox="0 0 67 83" fill="none" xmlns="http://www.w3.org/2000/svg">
<path d="M33.5 0C14.9996 0 0 14.8651 0 33.1996C0 47.5874 9.41352 63.9589 22.1142 77.5541C22.5246 77.9899 22.8596 78.3302 23.2909 78.7203C26.888 81.9116 30.6148 83.0404 33.5 82.9989C33.5377 82.9989 33.6005 82.9989 33.6298 82.9989C36.6365 82.9989 40.8742 81.6584 44.8858 77.6828C57.0714 65.6065 67 47.7991 67 33.1996C67 14.8651 52.0004 0 33.5 0ZM33.5 20.7497C40.4387 20.7497 46.0625 26.3231 46.0625 33.1996C46.0625 40.076 40.4387 45.6494 33.5 45.6494C26.5613 45.6494 20.9375 40.076 20.9375 33.1996C20.9375 26.3231 26.5613 20.7497 33.5 20.7497Z" fill="#26328F"/>
</svg>
