<svg width="24" height="24" viewBox="0 0 24 24" fill="none" xmlns="http://www.w3.org/2000/svg">
<path d="M19.3399 14.49L18.3399 12.83C18.1299 12.46 17.9399 11.76 17.9399 11.35V8.82C17.9399 6.47 16.5599 4.44 14.5699 3.49C14.0499 2.57 13.0899 2 11.9899 2C10.8999 2 9.91994 2.59 9.39994 3.52C7.44994 4.49 6.09994 6.5 6.09994 8.82V11.35C6.09994 11.76 5.90994 12.46 5.69994 12.82L4.68994 14.49C4.28994 15.16 4.19994 15.9 4.44994 16.58C4.68994 17.25 5.25994 17.77 5.99994 18.02C7.93994 18.68 9.97994 19 12.0199 19C14.0599 19 16.0999 18.68 18.0399 18.03C18.7399 17.8 19.2799 17.27 19.5399 16.58C19.7999 15.89 19.7299 15.13 19.3399 14.49Z" fill="#26328F"/>
<path d="M10.0957 20.6143C10.1462 20.6193 10.1968 20.6239 10.2476 20.6282C10.8291 20.6792 11.4235 20.71 12.0202 20.71C12.6075 20.71 13.1926 20.6791 13.7646 20.628L13.7646 20.628L13.7676 20.6277C13.8106 20.6237 13.8582 20.6197 13.9088 20.6156C13.4475 21.1572 12.7623 21.5 12.0002 21.5C11.3412 21.5 10.6926 21.2319 10.24 20.7628L10.2313 20.7538L10.2221 20.7452C10.1784 20.7042 10.1362 20.6604 10.0957 20.6143Z" stroke="#26328F"/>
</svg>
