<svg width="65" height="65" viewBox="0 0 65 65" fill="none" xmlns="http://www.w3.org/2000/svg">
<path d="M8.755 7.83C9.24864 5.60937 10.4847 3.62341 12.2591 2.1999C14.0334 0.77638 16.2402 0.000390409 18.515 3.07539e-08H46.4825C48.7578 -0.00017834 50.9651 0.775551 52.74 2.19911C54.5149 3.62268 55.7513 5.60895 56.245 7.83L57.8375 15H60C60.663 15 61.2989 15.2634 61.7678 15.7322C62.2366 16.2011 62.5 16.837 62.5 17.5C62.5 18.163 62.2366 18.7989 61.7678 19.2678C61.2989 19.7366 60.663 20 60 20H58.95L59.775 23.7125C61.3559 24.5717 62.6758 25.8415 63.5954 27.3881C64.5149 28.9346 65.0002 30.7007 65 32.5V57.5C65 59.4891 64.2098 61.3968 62.8033 62.8033C61.3968 64.2098 59.4891 65 57.5 65H55C53.0109 65 51.1032 64.2098 49.6967 62.8033C48.2902 61.3968 47.5 59.4891 47.5 57.5V55H17.5V57.5C17.5 59.4891 16.7098 61.3968 15.3033 62.8033C13.8968 64.2098 11.9891 65 10 65H7.5C5.51088 65 3.60322 64.2098 2.1967 62.8033C0.790177 61.3968 6.99346e-08 59.4891 6.99346e-08 57.5V32.5C-0.000212695 30.7007 0.485055 28.9346 1.40464 27.3881C2.32423 25.8415 3.64406 24.5717 5.225 23.7125L6.05 20H5C4.33696 20 3.70107 19.7366 3.23223 19.2678C2.76339 18.7989 2.5 18.163 2.5 17.5C2.5 16.837 2.76339 16.2011 3.23223 15.7322C3.70107 15.2634 4.33696 15 5 15H7.16L8.755 7.83ZM51.365 8.915C51.1181 7.80427 50.4997 6.81097 49.612 6.09917C48.7243 5.38736 47.6203 4.99963 46.4825 5H18.515C17.3776 5.0002 16.2742 5.38819 15.387 6.09995C14.4998 6.81171 13.8818 7.80469 13.635 8.915L10.6175 22.5H54.3825L51.365 8.915ZM52.5 55V57.5C52.5 58.163 52.7634 58.7989 53.2322 59.2678C53.7011 59.7366 54.337 60 55 60H57.5C58.163 60 58.7989 59.7366 59.2678 59.2678C59.7366 58.7989 60 58.163 60 57.5V55H52.5ZM5 55V57.5C5 58.163 5.26339 58.7989 5.73223 59.2678C6.20107 59.7366 6.83696 60 7.5 60H10C10.663 60 11.2989 59.7366 11.7678 59.2678C12.2366 58.7989 12.5 58.163 12.5 57.5V55H5ZM10 27.5C8.67392 27.5 7.40215 28.0268 6.46447 28.9645C5.52678 29.9021 5 31.1739 5 32.5V50H60V32.5C60 31.1739 59.4732 29.9021 58.5355 28.9645C57.5979 28.0268 56.3261 27.5 55 27.5H10ZM26.25 40C25.587 40 24.9511 40.2634 24.4822 40.7322C24.0134 41.2011 23.75 41.837 23.75 42.5C23.75 43.163 24.0134 43.7989 24.4822 44.2678C24.9511 44.7366 25.587 45 26.25 45H38.75C39.413 45 40.0489 44.7366 40.5178 44.2678C40.9866 43.7989 41.25 43.163 41.25 42.5C41.25 41.837 40.9866 41.2011 40.5178 40.7322C40.0489 40.2634 39.413 40 38.75 40H26.25ZM20 36.25C20 37.2446 19.6049 38.1984 18.9017 38.9016C18.1984 39.6049 17.2446 40 16.25 40C15.2554 40 14.3016 39.6049 13.5983 38.9016C12.8951 38.1984 12.5 37.2446 12.5 36.25C12.5 35.2554 12.8951 34.3016 13.5983 33.5984C14.3016 32.8951 15.2554 32.5 16.25 32.5C17.2446 32.5 18.1984 32.8951 18.9017 33.5984C19.6049 34.3016 20 35.2554 20 36.25ZM48.75 40C49.7446 40 50.6984 39.6049 51.4016 38.9016C52.1049 38.1984 52.5 37.2446 52.5 36.25C52.5 35.2554 52.1049 34.3016 51.4016 33.5984C50.6984 32.8951 49.7446 32.5 48.75 32.5C47.7554 32.5 46.8016 32.8951 46.0984 33.5984C45.3951 34.3016 45 35.2554 45 36.25C45 37.2446 45.3951 38.1984 46.0984 38.9016C46.8016 39.6049 47.7554 40 48.75 40Z" fill="black"/>
</svg>
