<svg width="25" height="25" viewBox="0 0 25 25" fill="none" xmlns="http://www.w3.org/2000/svg">
<path d="M22.8706 19.0936C22.8706 19.4686 22.7873 19.854 22.6104 20.229C22.4334 20.604 22.2044 20.9582 21.9025 21.2915C21.3924 21.854 20.8303 22.2603 20.1953 22.5207C19.5707 22.7811 18.894 22.9165 18.1653 22.9165C17.1035 22.9165 15.9688 22.6665 14.7717 22.1561C13.5746 21.6457 12.3774 20.9582 11.1907 20.0936C9.99353 19.2186 8.85885 18.2498 7.77622 17.1769C6.70399 16.0936 5.73587 14.9582 4.87184 13.7707C4.01823 12.5832 3.33117 11.3957 2.8315 10.2186C2.33182 9.03111 2.08198 7.8957 2.08198 6.81237C2.08198 6.10404 2.2069 5.42695 2.45674 4.80195C2.70658 4.16654 3.10216 3.58321 3.65388 3.06238C4.32012 2.40613 5.04881 2.08321 5.81915 2.08321C6.11063 2.08321 6.4021 2.14571 6.66235 2.27071C6.93301 2.39571 7.17244 2.58321 7.35982 2.85404L9.77492 6.26029C9.9623 6.5207 10.0976 6.76028 10.1913 6.98945C10.285 7.2082 10.3371 7.42695 10.3371 7.62487C10.3371 7.87487 10.2642 8.12486 10.1185 8.36445C9.98312 8.60403 9.78533 8.85403 9.5355 9.10403L8.74434 9.92694C8.62983 10.0415 8.57778 10.1769 8.57778 10.3436C8.57778 10.4269 8.58819 10.4999 8.60901 10.5832C8.64024 10.6665 8.67147 10.729 8.69229 10.7915C8.87967 11.1353 9.20238 11.5832 9.66041 12.1249C10.1289 12.6665 10.6285 13.2186 11.1699 13.7707C11.732 14.3228 12.2733 14.8332 12.825 15.3019C13.3664 15.7603 13.814 16.0728 14.1679 16.2603C14.22 16.2811 14.2824 16.3123 14.3553 16.3436C14.4386 16.3748 14.5219 16.3853 14.6155 16.3853C14.7925 16.3853 14.9278 16.3228 15.0424 16.2082L15.8335 15.4269C16.0938 15.1665 16.3436 14.9686 16.583 14.8436C16.8225 14.6978 17.0619 14.6249 17.3221 14.6249C17.5199 14.6249 17.7281 14.6665 17.9571 14.7603C18.1862 14.854 18.4256 14.9894 18.6858 15.1665L22.1315 17.6144C22.4022 17.8019 22.5896 18.0207 22.7041 18.2811C22.8082 18.5415 22.8706 18.8019 22.8706 19.0936Z" stroke="white" stroke-width="1.5" stroke-miterlimit="10"/>
</svg>
