<?xml version="1.0" encoding="utf-8"?>
<!-- Svg Vector Icons : http://www.onlinewebfonts.com/icon -->
<!DOCTYPE svg PUBLIC "-//W3C//DTD SVG 1.1//EN" "http://www.w3.org/Graphics/SVG/1.1/DTD/svg11.dtd">
<svg version="1.1" xmlns="http://www.w3.org/2000/svg" xmlns:xlink="http://www.w3.org/1999/xlink" x="0px" y="0px" viewBox="0 0 256 256" enable-background="new 0 0 256 256" xml:space="preserve">
<metadata> Svg Vector Icons : http://www.onlinewebfonts.com/icon </metadata>
<g><g><g><path fill="#000000" d="M116,10.4C88.9,13.6,70.5,28,62.8,52.2c-3.2,9.9-3.9,16.6-3.9,34.4v13.6h-1.2c-2.7,0-8.8,1.6-12,3.1c-8.8,4.2-14.8,11.9-16.7,21.5c-0.7,3.2-0.8,9.5-0.8,48.3c0,38.9,0.1,45.2,0.8,48.3c2,9.5,8,17.3,16.7,21.5c6.8,3.3,3,3.1,82.3,3.1c79.3,0,75.5,0.1,82.3-3.1c8.8-4.2,14.8-11.9,16.7-21.5c0.7-3.2,0.8-9.5,0.8-48.3c0-49.6,0-48.8-3.1-55.4c-4.2-8.8-11.9-14.8-21.5-16.7c-2-0.4-4.2-0.8-4.9-0.8h-1.2V86.6c0-7.4-0.2-15.5-0.5-17.8c-3.8-34.2-23.9-54.6-57.2-58.3C134,9.8,121.2,9.9,116,10.4z M144.3,26.6c19.1,4.5,30.7,15.2,35.2,32.8c1.8,7,2.2,12,2.2,26.9v13.8H128H74.2l0.2-16.5c0.2-14.6,0.3-16.9,1.2-21.2c2.2-10,6.1-17.4,12.2-23.6c5.8-5.8,12.6-9.5,21.5-11.7c6.7-1.7,9.3-1.9,20.3-1.7C138.1,25.6,141.1,25.9,144.3,26.6z M203.6,116.9c3,1.5,6,4.5,7.5,7.5l1.2,2.4v46.3v46.3l-1.2,2.4c-1.5,3-4.5,6-7.5,7.5l-2.4,1.2H128H54.8l-2.4-1.2c-3-1.5-6-4.5-7.5-7.5l-1.2-2.4l-0.1-45.1c-0.1-31.4,0-45.8,0.4-47.3c1.2-4.7,5.6-9.4,10.3-10.8c1.6-0.5,16.4-0.6,74.4-0.5l72.5,0.1L203.6,116.9z"/><path fill="#000000" d="M124.9,139.2c-1.8,0.8-3.4,2.5-4,4.3c-0.3,0.9-0.5,10.8-0.5,29.7c0,31.5-0.1,30.3,3.3,32.9c2.4,1.9,6.4,1.9,8.8,0c3.4-2.6,3.3-1.4,3.3-33c0-31.6,0.1-30.4-3.2-33C130.5,138.6,127,138.2,124.9,139.2z"/></g></g></g>
</svg>