<svg width="350" height="572" viewBox="0 0 350 572" fill="none" xmlns="http://www.w3.org/2000/svg">
<path d="M189 378.051L177.437 373L157.831 432.097L97 472" stroke="#26328F" stroke-width="2"/>
<g clip-path="url(#clip0_1165_2486)">
<path d="M271.881 249.863C271.875 244.168 267.834 239.309 262.185 238.2C255.926 236.969 249.69 241.011 248.275 247.193C247.629 250.007 248.057 252.688 249.197 255.296C250.277 257.769 251.826 259.94 253.592 261.963C255.353 263.977 257.305 265.793 259.42 267.432C259.865 267.779 259.987 267.782 260.427 267.435C263.402 265.109 266.076 262.489 268.277 259.417C269.74 257.375 270.948 255.197 271.518 252.733C271.733 251.795 271.824 250.829 271.972 249.877C271.94 249.871 271.912 249.866 271.881 249.863ZM268.895 249.863C268.895 254.75 264.871 258.763 259.962 258.772C255.002 258.786 250.949 254.761 250.958 249.838C250.966 244.959 255.01 240.957 259.925 240.96C264.862 240.963 268.895 244.965 268.895 249.863Z" fill="black"/>
<path d="M268.895 249.863C268.895 244.965 264.862 240.963 259.925 240.957C255.01 240.954 250.966 244.956 250.958 249.835C250.949 254.758 255.002 258.783 259.962 258.772C264.871 258.763 268.895 254.75 268.895 249.863ZM257.271 247.888C257.478 247.888 257.687 247.911 257.892 247.88C258.036 247.858 258.201 247.796 258.297 247.697C258.532 247.463 258.479 245.996 258.252 245.742C258.204 245.689 258.15 245.638 258.099 245.587C257.77 245.261 257.438 244.934 257.109 244.604C256.893 244.388 256.613 244.19 256.757 243.821C256.899 243.461 257.248 243.472 257.548 243.447C260.183 243.222 262.253 245.43 261.856 248.035C261.527 250.195 259.443 251.649 257.202 251.28C255.104 250.933 253.638 248.849 254.001 246.742C254.043 246.503 254.111 246.303 254.358 246.215C254.625 246.123 254.812 246.258 254.99 246.435C255.39 246.838 255.782 247.252 256.207 247.629C256.36 247.765 256.598 247.824 256.805 247.88C256.953 247.919 257.117 247.888 257.271 247.888ZM262.517 249.328C263.521 250.305 264.519 251.249 265.478 252.229C265.889 252.648 265.991 253.212 265.866 253.789C265.71 254.513 265.265 255.009 264.556 255.226C263.833 255.448 263.178 255.276 262.636 254.75C261.734 253.868 260.844 252.975 259.95 252.085C259.916 252.051 259.894 252.009 259.851 251.956C261.09 251.406 261.972 250.533 262.517 249.328Z" fill="white"/>
<path d="M257.27 247.889C257.114 247.889 256.95 247.92 256.805 247.883C256.596 247.83 256.36 247.77 256.207 247.632C255.782 247.258 255.39 246.841 254.99 246.438C254.815 246.261 254.627 246.126 254.358 246.218C254.108 246.306 254.04 246.506 254.001 246.745C253.635 248.852 255.104 250.939 257.202 251.283C259.443 251.652 261.53 250.198 261.856 248.038C262.253 245.433 260.183 243.222 257.548 243.45C257.251 243.475 256.899 243.464 256.757 243.824C256.613 244.193 256.893 244.391 257.109 244.607C257.438 244.937 257.77 245.264 258.099 245.59C258.15 245.641 258.203 245.692 258.252 245.745C258.481 245.999 258.532 247.466 258.297 247.7C258.198 247.799 258.033 247.86 257.892 247.883C257.69 247.911 257.48 247.889 257.27 247.889Z" fill="black"/>
<path d="M262.517 249.328C261.972 250.533 261.09 251.406 259.854 251.958C259.896 252.012 259.919 252.054 259.953 252.088C260.846 252.978 261.737 253.871 262.639 254.752C263.178 255.279 263.836 255.448 264.559 255.228C265.268 255.011 265.713 254.516 265.869 253.792C265.994 253.217 265.892 252.654 265.48 252.231C264.519 251.246 263.518 250.305 262.517 249.328Z" fill="black"/>
</g>
<g clip-path="url(#clip1_1165_2486)">
<path d="M331.881 81.863C331.875 76.168 327.834 71.3095 322.185 70.1998C315.926 68.9689 309.69 73.0106 308.275 79.1929C307.629 82.0066 308.057 84.6879 309.197 87.296C310.277 89.7689 311.826 91.9405 313.592 93.9627C315.353 95.9765 317.305 97.7932 319.42 99.4324C319.865 99.7788 319.987 99.7817 320.427 99.4352C323.402 97.1088 326.076 94.4894 328.277 91.4166C329.74 89.3746 330.948 87.1975 331.518 84.733C331.733 83.7951 331.824 82.829 331.972 81.877C331.94 81.8714 331.912 81.8658 331.881 81.863ZM328.895 81.863C328.895 86.7496 324.871 90.7632 319.962 90.7716C315.002 90.7857 310.949 86.7609 310.958 81.8376C310.966 76.9594 315.01 72.9571 319.925 72.9599C324.862 72.9628 328.895 76.965 328.895 81.863Z" fill="black"/>
<path d="M328.895 81.8629C328.895 76.9649 324.862 72.9627 319.925 72.957C315.01 72.9542 310.966 76.9565 310.958 81.8347C310.949 86.758 315.002 90.7828 319.962 90.7715C324.871 90.7631 328.895 86.7495 328.895 81.8629ZM317.271 79.8885C317.478 79.8885 317.687 79.911 317.892 79.88C318.036 79.8575 318.201 79.7955 318.297 79.697C318.532 79.4632 318.479 77.9958 318.252 77.7423C318.204 77.6888 318.15 77.6381 318.099 77.5874C317.77 77.2607 317.438 76.934 317.109 76.6044C316.893 76.3876 316.613 76.1904 316.757 75.8214C316.899 75.4609 317.248 75.4722 317.548 75.4468C320.183 75.2215 322.253 77.4297 321.856 80.0349C321.527 82.1952 319.443 83.6485 317.202 83.2796C315.104 82.9331 313.638 80.8489 314.001 78.7422C314.043 78.5028 314.111 78.3028 314.358 78.2155C314.625 78.1225 314.812 78.2577 314.99 78.4352C315.39 78.8379 315.782 79.252 316.207 79.6294C316.36 79.7646 316.598 79.8237 316.805 79.88C316.953 79.9195 317.117 79.8885 317.271 79.8885ZM322.517 81.3277C323.521 82.3051 324.519 83.2486 325.478 84.2287C325.889 84.6484 325.991 85.2117 325.866 85.7891C325.71 86.5129 325.265 87.0086 324.556 87.2255C323.833 87.448 323.178 87.2762 322.636 86.7495C321.734 85.868 320.844 84.9751 319.95 84.0851C319.916 84.0513 319.894 84.0091 319.851 83.9555C321.09 83.4063 321.972 82.5332 322.517 81.3277Z" fill="white"/>
<path d="M317.27 79.8886C317.114 79.8886 316.95 79.9196 316.805 79.883C316.596 79.8295 316.36 79.7704 316.207 79.6323C315.782 79.2577 315.39 78.8409 314.99 78.4381C314.815 78.2607 314.627 78.1255 314.358 78.2185C314.108 78.3058 314.04 78.5057 314.001 78.7451C313.635 80.8519 315.104 82.9389 317.202 83.2826C319.443 83.6515 321.53 82.1982 321.856 80.0379C322.253 77.4326 320.183 75.2217 317.548 75.4498C317.251 75.4752 316.899 75.4639 316.757 75.8244C316.613 76.1934 316.893 76.3905 317.109 76.6074C317.438 76.9369 317.77 77.2637 318.099 77.5904C318.15 77.6411 318.203 77.6918 318.252 77.7453C318.481 77.9988 318.532 79.4662 318.297 79.6999C318.198 79.7985 318.033 79.8605 317.892 79.883C317.69 79.9112 317.48 79.8886 317.27 79.8886Z" fill="black"/>
<path d="M322.517 81.3276C321.972 82.5331 321.09 83.4062 319.854 83.9583C319.896 84.0118 319.919 84.054 319.953 84.0878C320.846 84.9778 321.737 85.8707 322.639 86.7523C323.178 87.2789 323.836 87.4479 324.559 87.2282C325.268 87.0114 325.713 86.5157 325.869 85.7918C325.994 85.2173 325.892 84.6539 325.48 84.2315C324.519 83.2457 323.518 82.305 322.517 81.3276Z" fill="black"/>
</g>
<g clip-path="url(#clip2_1165_2486)">
<path d="M41.8809 11.863C41.8753 6.16796 37.8341 1.30946 32.1851 0.199755C25.9263 -1.03106 19.6902 3.01064 18.2751 9.1929C17.6285 12.0066 18.0568 14.6879 19.1968 17.296C20.2772 19.7689 21.8256 21.9405 23.5924 23.9627C25.3535 25.9765 27.3045 27.7932 29.4201 29.4324C29.8653 29.7788 29.9873 29.7817 30.4268 29.4352C33.4017 27.1088 36.0759 24.4894 38.2765 21.4166C39.7398 19.3746 40.9479 17.1975 41.5179 14.733C41.7335 13.7951 41.8242 12.829 41.9717 11.877C41.9405 11.8714 41.9121 11.8658 41.8809 11.863ZM38.8948 11.863C38.8948 16.7496 34.8707 20.7632 29.9618 20.7716C25.0018 20.7857 20.9493 16.7609 20.9579 11.8376C20.9664 6.9594 25.0103 2.95713 29.9249 2.95994C34.8621 2.96276 38.8948 6.96504 38.8948 11.863Z" fill="black"/>
<path d="M38.8948 11.8629C38.8948 6.96494 34.8622 2.96267 29.9249 2.95703C25.0103 2.95422 20.9664 6.95649 20.9579 11.8347C20.9494 16.758 25.0018 20.7828 29.9618 20.7715C34.8707 20.7631 38.8948 16.7495 38.8948 11.8629ZM27.2705 9.88849C27.4775 9.88849 27.6874 9.91102 27.8916 9.88004C28.0362 9.85751 28.2007 9.79554 28.2971 9.69696C28.5325 9.46319 28.4786 7.99579 28.2517 7.7423C28.2035 7.68879 28.1496 7.63809 28.0986 7.58739C27.7696 7.26067 27.4378 6.93396 27.1089 6.60443C26.8934 6.38755 26.6126 6.1904 26.7572 5.82143C26.899 5.46092 27.2478 5.47219 27.5484 5.44684C30.183 5.22151 32.2532 7.42967 31.8561 10.0349C31.5272 12.1952 29.4428 13.6485 27.2025 13.2796C25.1039 12.9331 23.6378 10.8489 24.0008 8.74216C24.0433 8.50276 24.1114 8.30279 24.3581 8.21548C24.6247 8.12253 24.8118 8.25772 24.9905 8.43516C25.3903 8.83793 25.7817 9.25195 26.2071 9.62937C26.3602 9.76456 26.5984 9.82371 26.8054 9.88004C26.9529 9.91947 27.1174 9.88849 27.2705 9.88849ZM32.5169 11.3277C33.5208 12.3051 34.519 13.2486 35.4775 14.2287C35.8887 14.6484 35.9908 15.2117 35.8661 15.7891C35.7101 16.5129 35.2649 17.0086 34.5559 17.2255C33.8327 17.448 33.1777 17.2762 32.636 16.7495C31.7342 15.868 30.8437 14.9751 29.9504 14.0851C29.9164 14.0513 29.8937 14.0091 29.8512 13.9555C31.0905 13.4063 31.9724 12.5332 32.5169 11.3277Z" fill="white"/>
<path d="M27.2705 9.88865C27.1145 9.88865 26.95 9.91963 26.8054 9.88302C26.5955 9.8295 26.3601 9.77036 26.207 9.63235C25.7816 9.25775 25.3903 8.8409 24.9904 8.43814C24.8146 8.2607 24.6274 8.12551 24.358 8.21845C24.1085 8.30576 24.0404 8.50574 24.0007 8.74514C23.6349 10.8519 25.1039 12.9389 27.2024 13.2826C29.4427 13.6515 31.5299 12.1982 31.8561 10.0379C32.2531 7.43264 30.1829 5.22168 27.5484 5.44981C27.2506 5.47516 26.899 5.4639 26.7572 5.82441C26.6125 6.19337 26.8933 6.39053 27.1088 6.6074C27.4378 6.93694 27.7696 7.26365 28.0985 7.59037C28.1496 7.64107 28.2035 7.69176 28.2517 7.74528C28.4814 7.99876 28.5324 9.46617 28.2971 9.69994C28.1978 9.79852 28.0333 9.86048 27.8915 9.88302C27.6902 9.91118 27.4803 9.88865 27.2705 9.88865Z" fill="black"/>
<path d="M32.5168 11.3276C31.9723 12.5331 31.0904 13.4062 29.8539 13.9583C29.8965 14.0118 29.9192 14.054 29.9532 14.0878C30.8465 14.9778 31.737 15.8707 32.6388 16.7523C33.1776 17.2789 33.8355 17.4479 34.5587 17.2282C35.2676 17.0114 35.7129 16.5157 35.8688 15.7918C35.9936 15.2173 35.8915 14.6539 35.4803 14.2315C34.5189 13.2457 33.5179 12.305 32.5168 11.3276Z" fill="black"/>
</g>
<g clip-path="url(#clip3_1165_2486)">
<path d="M32.8809 339.863C32.8753 334.168 28.8341 329.309 23.1851 328.2C16.9263 326.969 10.6902 331.011 9.27512 337.193C8.62854 340.007 9.05676 342.688 10.1968 345.296C11.2772 347.769 12.8256 349.94 14.5924 351.963C16.3535 353.977 18.3045 355.793 20.4201 357.432C20.8653 357.779 20.9873 357.782 21.4268 357.435C24.4017 355.109 27.0759 352.489 29.2765 349.417C30.7398 347.375 31.9479 345.197 32.5179 342.733C32.7335 341.795 32.8242 340.829 32.9717 339.877C32.9405 339.871 32.9121 339.866 32.8809 339.863ZM29.8948 339.863C29.8948 344.75 25.8707 348.763 20.9618 348.772C16.0018 348.786 11.9493 344.761 11.9579 339.838C11.9664 334.959 16.0103 330.957 20.9249 330.96C25.8621 330.963 29.8948 334.965 29.8948 339.863Z" fill="black"/>
<path d="M29.8948 339.863C29.8948 334.965 25.8622 330.963 20.9249 330.957C16.0103 330.954 11.9664 334.956 11.9579 339.835C11.9494 344.758 16.0018 348.783 20.9618 348.772C25.8707 348.763 29.8948 344.75 29.8948 339.863ZM18.2705 337.888C18.4775 337.888 18.6874 337.911 18.8916 337.88C19.0362 337.858 19.2007 337.796 19.2971 337.697C19.5325 337.463 19.4786 335.996 19.2517 335.742C19.2035 335.689 19.1496 335.638 19.0986 335.587C18.7696 335.261 18.4378 334.934 18.1089 334.604C17.8934 334.388 17.6126 334.19 17.7572 333.821C17.899 333.461 18.2478 333.472 18.5484 333.447C21.183 333.222 23.2532 335.43 22.8561 338.035C22.5272 340.195 20.4428 341.649 18.2025 341.28C16.1039 340.933 14.6378 338.849 15.0008 336.742C15.0433 336.503 15.1114 336.303 15.3581 336.215C15.6247 336.123 15.8118 336.258 15.9905 336.435C16.3903 336.838 16.7817 337.252 17.2071 337.629C17.3602 337.765 17.5984 337.824 17.8054 337.88C17.9529 337.919 18.1174 337.888 18.2705 337.888ZM23.5169 339.328C24.5208 340.305 25.519 341.249 26.4775 342.229C26.8887 342.648 26.9908 343.212 26.8661 343.789C26.7101 344.513 26.2649 345.009 25.5559 345.226C24.8327 345.448 24.1777 345.276 23.636 344.75C22.7342 343.868 21.8437 342.975 20.9504 342.085C20.9164 342.051 20.8937 342.009 20.8512 341.956C22.0905 341.406 22.9724 340.533 23.5169 339.328Z" fill="white"/>
<path d="M18.2705 337.889C18.1145 337.889 17.95 337.92 17.8054 337.883C17.5955 337.83 17.3601 337.77 17.207 337.632C16.7816 337.258 16.3903 336.841 15.9904 336.438C15.8146 336.261 15.6274 336.126 15.358 336.218C15.1085 336.306 15.0404 336.506 15.0007 336.745C14.6349 338.852 16.1039 340.939 18.2024 341.283C20.4427 341.652 22.5299 340.198 22.8561 338.038C23.2531 335.433 21.1829 333.222 18.5484 333.45C18.2506 333.475 17.899 333.464 17.7572 333.824C17.6125 334.193 17.8933 334.391 18.1088 334.607C18.4378 334.937 18.7696 335.264 19.0985 335.59C19.1496 335.641 19.2035 335.692 19.2517 335.745C19.4814 335.999 19.5324 337.466 19.2971 337.7C19.1978 337.799 19.0333 337.86 18.8915 337.883C18.6902 337.911 18.4803 337.889 18.2705 337.889Z" fill="black"/>
<path d="M23.5168 339.328C22.9723 340.533 22.0904 341.406 20.8539 341.958C20.8965 342.012 20.9192 342.054 20.9532 342.088C21.8465 342.978 22.737 343.871 23.6388 344.752C24.1776 345.279 24.8355 345.448 25.5587 345.228C26.2676 345.011 26.7129 344.516 26.8688 343.792C26.9936 343.217 26.8915 342.654 26.4803 342.231C25.5189 341.246 24.5179 340.305 23.5168 339.328Z" fill="black"/>
</g>
<g clip-path="url(#clip4_1165_2486)">
<path d="M349.881 500.863C349.875 495.168 345.834 490.309 340.185 489.2C333.926 487.969 327.69 492.011 326.275 498.193C325.629 501.007 326.057 503.688 327.197 506.296C328.277 508.769 329.826 510.94 331.592 512.963C333.353 514.977 335.305 516.793 337.42 518.432C337.865 518.779 337.987 518.782 338.427 518.435C341.402 516.109 344.076 513.489 346.277 510.417C347.74 508.375 348.948 506.197 349.518 503.733C349.733 502.795 349.824 501.829 349.972 500.877C349.94 500.871 349.912 500.866 349.881 500.863ZM346.895 500.863C346.895 505.75 342.871 509.763 337.962 509.772C333.002 509.786 328.949 505.761 328.958 500.838C328.966 495.959 333.01 491.957 337.925 491.96C342.862 491.963 346.895 495.965 346.895 500.863Z" fill="black"/>
<path d="M346.895 500.863C346.895 495.965 342.862 491.963 337.925 491.957C333.01 491.954 328.966 495.956 328.958 500.835C328.949 505.758 333.002 509.783 337.962 509.772C342.871 509.763 346.895 505.75 346.895 500.863ZM335.271 498.888C335.478 498.888 335.687 498.911 335.892 498.88C336.036 498.858 336.201 498.796 336.297 498.697C336.532 498.463 336.479 496.996 336.252 496.742C336.204 496.689 336.15 496.638 336.099 496.587C335.77 496.261 335.438 495.934 335.109 495.604C334.893 495.388 334.613 495.19 334.757 494.821C334.899 494.461 335.248 494.472 335.548 494.447C338.183 494.222 340.253 496.43 339.856 499.035C339.527 501.195 337.443 502.649 335.202 502.28C333.104 501.933 331.638 499.849 332.001 497.742C332.043 497.503 332.111 497.303 332.358 497.215C332.625 497.123 332.812 497.258 332.99 497.435C333.39 497.838 333.782 498.252 334.207 498.629C334.36 498.765 334.598 498.824 334.805 498.88C334.953 498.919 335.117 498.888 335.271 498.888ZM340.517 500.328C341.521 501.305 342.519 502.249 343.478 503.229C343.889 503.648 343.991 504.212 343.866 504.789C343.71 505.513 343.265 506.009 342.556 506.226C341.833 506.448 341.178 506.276 340.636 505.75C339.734 504.868 338.844 503.975 337.95 503.085C337.916 503.051 337.894 503.009 337.851 502.956C339.09 502.406 339.972 501.533 340.517 500.328Z" fill="white"/>
<path d="M335.27 498.889C335.114 498.889 334.95 498.92 334.805 498.883C334.596 498.83 334.36 498.77 334.207 498.632C333.782 498.258 333.39 497.841 332.99 497.438C332.815 497.261 332.627 497.126 332.358 497.218C332.108 497.306 332.04 497.506 332.001 497.745C331.635 499.852 333.104 501.939 335.202 502.283C337.443 502.652 339.53 501.198 339.856 499.038C340.253 496.433 338.183 494.222 335.548 494.45C335.251 494.475 334.899 494.464 334.757 494.824C334.613 495.193 334.893 495.391 335.109 495.607C335.438 495.937 335.77 496.264 336.099 496.59C336.15 496.641 336.203 496.692 336.252 496.745C336.481 496.999 336.532 498.466 336.297 498.7C336.198 498.799 336.033 498.86 335.892 498.883C335.69 498.911 335.48 498.889 335.27 498.889Z" fill="black"/>
<path d="M340.517 500.328C339.972 501.533 339.09 502.406 337.854 502.958C337.896 503.012 337.919 503.054 337.953 503.088C338.846 503.978 339.737 504.871 340.639 505.752C341.178 506.279 341.836 506.448 342.559 506.228C343.268 506.011 343.713 505.516 343.869 504.792C343.994 504.217 343.892 503.654 343.48 503.231C342.519 502.246 341.518 501.305 340.517 500.328Z" fill="black"/>
</g>
<g clip-path="url(#clip5_1165_2486)">
<path d="M200.881 360.863C200.875 355.168 196.834 350.309 191.185 349.2C184.926 347.969 178.69 352.011 177.275 358.193C176.629 361.007 177.057 363.688 178.197 366.296C179.277 368.769 180.826 370.94 182.592 372.963C184.353 374.977 186.305 376.793 188.42 378.432C188.865 378.779 188.987 378.782 189.427 378.435C192.402 376.109 195.076 373.489 197.277 370.417C198.74 368.375 199.948 366.197 200.518 363.733C200.733 362.795 200.824 361.829 200.972 360.877C200.94 360.871 200.912 360.866 200.881 360.863ZM197.895 360.863C197.895 365.75 193.871 369.763 188.962 369.772C184.002 369.786 179.949 365.761 179.958 360.838C179.966 355.959 184.01 351.957 188.925 351.96C193.862 351.963 197.895 355.965 197.895 360.863Z" fill="black"/>
<path d="M197.895 360.863C197.895 355.965 193.862 351.963 188.925 351.957C184.01 351.954 179.966 355.956 179.958 360.835C179.949 365.758 184.002 369.783 188.962 369.772C193.871 369.763 197.895 365.75 197.895 360.863ZM186.271 358.888C186.478 358.888 186.687 358.911 186.892 358.88C187.036 358.858 187.201 358.796 187.297 358.697C187.532 358.463 187.479 356.996 187.252 356.742C187.204 356.689 187.15 356.638 187.099 356.587C186.77 356.261 186.438 355.934 186.109 355.604C185.893 355.388 185.613 355.19 185.757 354.821C185.899 354.461 186.248 354.472 186.548 354.447C189.183 354.222 191.253 356.43 190.856 359.035C190.527 361.195 188.443 362.649 186.202 362.28C184.104 361.933 182.638 359.849 183.001 357.742C183.043 357.503 183.111 357.303 183.358 357.215C183.625 357.123 183.812 357.258 183.99 357.435C184.39 357.838 184.782 358.252 185.207 358.629C185.36 358.765 185.598 358.824 185.805 358.88C185.953 358.919 186.117 358.888 186.271 358.888ZM191.517 360.328C192.521 361.305 193.519 362.249 194.478 363.229C194.889 363.648 194.991 364.212 194.866 364.789C194.71 365.513 194.265 366.009 193.556 366.226C192.833 366.448 192.178 366.276 191.636 365.75C190.734 364.868 189.844 363.975 188.95 363.085C188.916 363.051 188.894 363.009 188.851 362.956C190.09 362.406 190.972 361.533 191.517 360.328Z" fill="white"/>
<path d="M186.27 358.889C186.114 358.889 185.95 358.92 185.805 358.883C185.596 358.83 185.36 358.77 185.207 358.632C184.782 358.258 184.39 357.841 183.99 357.438C183.815 357.261 183.627 357.126 183.358 357.218C183.108 357.306 183.04 357.506 183.001 357.745C182.635 359.852 184.104 361.939 186.202 362.283C188.443 362.652 190.53 361.198 190.856 359.038C191.253 356.433 189.183 354.222 186.548 354.45C186.251 354.475 185.899 354.464 185.757 354.824C185.613 355.193 185.893 355.391 186.109 355.607C186.438 355.937 186.77 356.264 187.099 356.59C187.15 356.641 187.203 356.692 187.252 356.745C187.481 356.999 187.532 358.466 187.297 358.7C187.198 358.799 187.033 358.86 186.892 358.883C186.69 358.911 186.48 358.889 186.27 358.889Z" fill="black"/>
<path d="M191.517 360.328C190.972 361.533 190.09 362.406 188.854 362.958C188.896 363.012 188.919 363.054 188.953 363.088C189.846 363.978 190.737 364.871 191.639 365.752C192.178 366.279 192.836 366.448 193.559 366.228C194.268 366.011 194.713 365.516 194.869 364.792C194.994 364.217 194.892 363.654 194.48 363.231C193.519 362.246 192.518 361.305 191.517 360.328Z" fill="black"/>
</g>
<g clip-path="url(#clip6_1165_2486)">
<path d="M97.8809 154.863C97.8753 149.168 93.8341 144.309 88.1851 143.2C81.9263 141.969 75.6902 146.011 74.2751 152.193C73.6285 155.007 74.0568 157.688 75.1968 160.296C76.2772 162.769 77.8256 164.94 79.5924 166.963C81.3535 168.977 83.3045 170.793 85.4201 172.432C85.8653 172.779 85.9873 172.782 86.4268 172.435C89.4017 170.109 92.0759 167.489 94.2765 164.417C95.7398 162.375 96.9479 160.197 97.5179 157.733C97.7335 156.795 97.8242 155.829 97.9717 154.877C97.9405 154.871 97.9121 154.866 97.8809 154.863ZM94.8948 154.863C94.8948 159.75 90.8707 163.763 85.9618 163.772C81.0018 163.786 76.9493 159.761 76.9579 154.838C76.9664 149.959 81.0103 145.957 85.9249 145.96C90.8621 145.963 94.8948 149.965 94.8948 154.863Z" fill="black"/>
<path d="M94.8948 154.863C94.8948 149.965 90.8622 145.963 85.9249 145.957C81.0103 145.954 76.9664 149.956 76.9579 154.835C76.9494 159.758 81.0018 163.783 85.9618 163.772C90.8707 163.763 94.8948 159.75 94.8948 154.863ZM83.2705 152.888C83.4775 152.888 83.6874 152.911 83.8916 152.88C84.0362 152.858 84.2007 152.796 84.2971 152.697C84.5325 152.463 84.4786 150.996 84.2517 150.742C84.2035 150.689 84.1496 150.638 84.0986 150.587C83.7696 150.261 83.4378 149.934 83.1089 149.604C82.8934 149.388 82.6126 149.19 82.7572 148.821C82.899 148.461 83.2478 148.472 83.5484 148.447C86.183 148.222 88.2532 150.43 87.8561 153.035C87.5272 155.195 85.4428 156.649 83.2025 156.28C81.1039 155.933 79.6378 153.849 80.0008 151.742C80.0433 151.503 80.1114 151.303 80.3581 151.215C80.6247 151.123 80.8118 151.258 80.9905 151.435C81.3903 151.838 81.7817 152.252 82.2071 152.629C82.3602 152.765 82.5984 152.824 82.8054 152.88C82.9529 152.919 83.1174 152.888 83.2705 152.888ZM88.5169 154.328C89.5208 155.305 90.519 156.249 91.4775 157.229C91.8887 157.648 91.9908 158.212 91.8661 158.789C91.7101 159.513 91.2649 160.009 90.5559 160.226C89.8327 160.448 89.1777 160.276 88.636 159.75C87.7342 158.868 86.8437 157.975 85.9504 157.085C85.9164 157.051 85.8937 157.009 85.8512 156.956C87.0905 156.406 87.9724 155.533 88.5169 154.328Z" fill="white"/>
<path d="M83.2705 152.889C83.1145 152.889 82.95 152.92 82.8054 152.883C82.5955 152.83 82.3601 152.77 82.207 152.632C81.7816 152.258 81.3903 151.841 80.9904 151.438C80.8146 151.261 80.6274 151.126 80.358 151.218C80.1085 151.306 80.0404 151.506 80.0007 151.745C79.6349 153.852 81.1039 155.939 83.2024 156.283C85.4427 156.652 87.5299 155.198 87.8561 153.038C88.2531 150.433 86.1829 148.222 83.5484 148.45C83.2506 148.475 82.899 148.464 82.7572 148.824C82.6125 149.193 82.8933 149.391 83.1088 149.607C83.4378 149.937 83.7696 150.264 84.0985 150.59C84.1496 150.641 84.2035 150.692 84.2517 150.745C84.4814 150.999 84.5324 152.466 84.2971 152.7C84.1978 152.799 84.0333 152.86 83.8915 152.883C83.6902 152.911 83.4803 152.889 83.2705 152.889Z" fill="black"/>
<path d="M88.5168 154.328C87.9723 155.533 87.0904 156.406 85.8539 156.958C85.8965 157.012 85.9192 157.054 85.9532 157.088C86.8465 157.978 87.737 158.871 88.6388 159.752C89.1776 160.279 89.8355 160.448 90.5587 160.228C91.2676 160.011 91.7129 159.516 91.8688 158.792C91.9936 158.217 91.8915 157.654 91.4803 157.231C90.5189 156.246 89.5179 155.305 88.5168 154.328Z" fill="black"/>
</g>
<g clip-path="url(#clip7_1165_2486)">
<path d="M23.8809 553.863C23.8753 548.168 19.8341 543.309 14.1851 542.2C7.92631 540.969 1.69022 545.011 0.275118 551.193C-0.371462 554.007 0.0567551 556.688 1.19678 559.296C2.27724 561.769 3.82563 563.94 5.59238 565.963C7.35346 567.977 9.30454 569.793 11.4201 571.432C11.8653 571.779 11.9873 571.782 12.4268 571.435C15.4017 569.109 18.0759 566.489 20.2765 563.417C21.7398 561.375 22.9479 559.197 23.5179 556.733C23.7335 555.795 23.8242 554.829 23.9717 553.877C23.9405 553.871 23.9121 553.866 23.8809 553.863ZM20.8948 553.863C20.8948 558.75 16.8707 562.763 11.9618 562.772C7.00181 562.786 2.94935 558.761 2.95786 553.838C2.96636 548.959 7.01032 544.957 11.9249 544.96C16.8621 544.963 20.8948 548.965 20.8948 553.863Z" fill="black"/>
<path d="M20.8948 553.863C20.8948 548.965 16.8622 544.963 11.9249 544.957C7.01034 544.954 2.96638 548.956 2.95787 553.835C2.94937 558.758 7.00183 562.783 11.9618 562.772C16.8707 562.763 20.8948 558.75 20.8948 553.863ZM9.27053 551.888C9.47755 551.888 9.6874 551.911 9.89158 551.88C10.0362 551.858 10.2007 551.796 10.2971 551.697C10.5325 551.463 10.4786 549.996 10.2517 549.742C10.2035 549.689 10.1496 549.638 10.0986 549.587C9.76964 549.261 9.43785 548.934 9.10888 548.604C8.89336 548.388 8.61261 548.19 8.75724 547.821C8.89903 547.461 9.24784 547.472 9.54844 547.447C12.183 547.222 14.2532 549.43 13.8561 552.035C13.5272 554.195 11.4428 555.649 9.20247 555.28C7.10392 554.933 5.63777 552.849 6.00076 550.742C6.0433 550.503 6.11137 550.303 6.35809 550.215C6.62466 550.123 6.81183 550.258 6.99049 550.435C7.39034 550.838 7.78169 551.252 8.20708 551.629C8.36021 551.765 8.59843 551.824 8.80544 551.88C8.95291 551.919 9.11739 551.888 9.27053 551.888ZM14.5169 553.328C15.5208 554.305 16.519 555.249 17.4775 556.229C17.8887 556.648 17.9908 557.212 17.8661 557.789C17.7101 558.513 17.2649 559.009 16.5559 559.226C15.8327 559.448 15.1777 559.276 14.636 558.75C13.7342 557.868 12.8437 556.975 11.9504 556.085C11.9164 556.051 11.8937 556.009 11.8512 555.956C13.0905 555.406 13.9724 554.533 14.5169 553.328Z" fill="white"/>
<path d="M9.27046 551.889C9.11449 551.889 8.95001 551.92 8.80538 551.883C8.59553 551.83 8.36015 551.77 8.20701 551.632C7.78163 551.258 7.39028 550.841 6.99042 550.438C6.8146 550.261 6.62743 550.126 6.35802 550.218C6.10847 550.306 6.0404 550.506 6.0007 550.745C5.63487 552.852 7.10386 554.939 9.2024 555.283C11.4427 555.652 13.5299 554.198 13.8561 552.038C14.2531 549.433 12.1829 547.222 9.54838 547.45C9.25061 547.475 8.89896 547.464 8.75717 547.824C8.61254 548.193 8.89329 548.391 9.10882 548.607C9.43778 548.937 9.76958 549.264 10.0985 549.59C10.1496 549.641 10.2035 549.692 10.2517 549.745C10.4814 549.999 10.5324 551.466 10.2971 551.7C10.1978 551.799 10.0333 551.86 9.89152 551.883C9.69017 551.911 9.48032 551.889 9.27046 551.889Z" fill="black"/>
<path d="M14.5168 553.328C13.9723 554.533 13.0904 555.406 11.8539 555.958C11.8965 556.012 11.9192 556.054 11.9532 556.088C12.8465 556.978 13.737 557.871 14.6388 558.752C15.1776 559.279 15.8355 559.448 16.5587 559.228C17.2676 559.011 17.7129 558.516 17.8688 557.792C17.9936 557.217 17.8915 556.654 17.4803 556.231C16.5189 555.246 15.5179 554.305 14.5168 553.328Z" fill="black"/>
</g>
<defs>
<clipPath id="clip0_1165_2486">
<rect width="24" height="29.7143" fill="white" transform="matrix(-1 0 0 1 272 238)"/>
</clipPath>
<clipPath id="clip1_1165_2486">
<rect width="24" height="29.7143" fill="white" transform="matrix(-1 0 0 1 332 70)"/>
</clipPath>
<clipPath id="clip2_1165_2486">
<rect width="24" height="29.7143" fill="white" transform="matrix(-1 0 0 1 42 0)"/>
</clipPath>
<clipPath id="clip3_1165_2486">
<rect width="24" height="29.7143" fill="white" transform="matrix(-1 0 0 1 33 328)"/>
</clipPath>
<clipPath id="clip4_1165_2486">
<rect width="24" height="29.7143" fill="white" transform="matrix(-1 0 0 1 350 489)"/>
</clipPath>
<clipPath id="clip5_1165_2486">
<rect width="24" height="29.7143" fill="white" transform="matrix(-1 0 0 1 201 349)"/>
</clipPath>
<clipPath id="clip6_1165_2486">
<rect width="24" height="29.7143" fill="white" transform="matrix(-1 0 0 1 98 143)"/>
</clipPath>
<clipPath id="clip7_1165_2486">
<rect width="24" height="29.7143" fill="white" transform="matrix(-1 0 0 1 24 542)"/>
</clipPath>
</defs>
</svg>
