<svg width="40" height="40" viewBox="0 0 40 40" fill="none" xmlns="http://www.w3.org/2000/svg">
<path d="M36.5032 3.46499C31.9421 -1.09603 27.4752 -1.21358 22.7966 3.46499L19.9518 6.30975C19.7167 6.54485 19.6227 6.92102 19.7167 7.25016C21.5035 13.4804 26.4877 18.4646 32.718 20.2514C32.812 20.2749 32.9061 20.2984 33.0001 20.2984C33.2587 20.2984 33.4938 20.2044 33.6819 20.0163L36.5032 17.1716C38.8307 14.8675 39.9592 12.634 39.9592 10.377C39.9827 8.04952 38.8542 5.79252 36.5032 3.46499Z" fill="white"/>
<path d="M28.4856 22.4108C27.8038 22.0811 27.1455 21.7514 26.5108 21.3747C25.9935 21.0686 25.4998 20.7389 25.0061 20.3857C24.6064 20.1267 24.1362 19.75 23.6895 19.3732C23.6425 19.3497 23.4779 19.2084 23.2898 19.02C22.514 18.3607 21.6441 17.513 20.8683 16.5712C20.7977 16.5241 20.6802 16.3592 20.5156 16.1473C20.2805 15.8648 19.8808 15.3938 19.5282 14.8523C19.246 14.4991 18.9169 13.981 18.6113 13.463C18.2351 12.8272 17.9059 12.1915 17.5768 11.5322C17.3715 11.0915 17.1936 10.6601 17.0318 10.2435C16.8987 9.90084 16.4576 9.80397 16.1979 10.0641L1.9894 24.2945C1.68376 24.6006 1.40164 25.1893 1.33111 25.5896L0.0615458 34.6079C-0.173558 36.2091 0.27314 37.7161 1.26058 38.7286C2.10695 39.5528 3.28247 40.0001 4.55203 40.0001C4.83416 40.0001 5.11628 39.9766 5.39841 39.9295L14.4264 38.658C14.8496 38.5873 15.4374 38.3048 15.7195 37.9987L29.9223 23.7739C30.1834 23.5124 30.0838 23.0669 29.7398 22.9319C29.3339 22.7726 28.9234 22.6007 28.4856 22.4108Z" fill="white"/>
</svg>
