<?xml version="1.0" encoding="utf-8"?>
<!-- Svg Vector Icons : http://www.onlinewebfonts.com/icon -->
<!DOCTYPE svg PUBLIC "-//W3C//DTD SVG 1.1//EN" "http://www.w3.org/Graphics/SVG/1.1/DTD/svg11.dtd">
<svg version="1.1" xmlns="http://www.w3.org/2000/svg" xmlns:xlink="http://www.w3.org/1999/xlink" x="0px" y="0px" viewBox="0 0 256 256" enable-background="new 0 0 256 256" xml:space="preserve">
<metadata> Svg Vector Icons : http://www.onlinewebfonts.com/icon </metadata>
<g><g><path fill="#000000" d="M243.8,57c-0.2-1.5-0.8-3-1.9-4.3c-6.1-11.9-18.6-20.1-32.9-20.1H47c-14.3,0-26.8,8.2-32.9,20.1c-1,1.3-1.7,2.7-1.9,4.3C10.8,61,10,65.2,10,69.7v116.7c0,20.4,16.6,37,37,37h162c20.4,0,37-16.6,37-37V69.6C246,65.2,245.2,61,243.8,57L243.8,57z M47,49.4h162c6.4,0,12.2,3,15.9,7.7l-68.8,74.3c-7.5,8.2-17.5,12.6-28.1,12.6c-10.6,0-20.6-4.5-28.1-12.6l-2.6-2.8c-0.3-0.5-0.7-1-1.2-1.5c-0.3-0.3-0.6-0.6-0.9-0.8L31.2,57.2C34.9,52.5,40.6,49.4,47,49.4L47,49.4z M209,206.6H47c-11.1,0-20.2-9.1-20.2-20.2V77.3L78.4,133l-32.2,32.2c-3.3,3.3-3.3,8.6,0,11.9c1.6,1.6,3.8,2.5,5.9,2.5s4.3-0.8,5.9-2.5l31.8-31.8c10.5,10.1,23.9,15.6,38.1,15.6l0,0c15.3,0,29.7-6.4,40.4-18l34.2,34.2c1.6,1.6,3.8,2.5,5.9,2.5c2.1,0,4.3-0.8,5.9-2.5c3.3-3.3,3.3-8.6,0-11.9l-34.6-34.7l49.3-53.3v109.1C229.2,197.5,220.2,206.6,209,206.6L209,206.6z"/></g></g>
</svg>