<?xml version="1.0" encoding="utf-8"?>
<!-- Svg Vector Icons : http://www.onlinewebfonts.com/icon -->
<!DOCTYPE svg PUBLIC "-//W3C//DTD SVG 1.1//EN" "http://www.w3.org/Graphics/SVG/1.1/DTD/svg11.dtd">
<svg version="1.1" xmlns="http://www.w3.org/2000/svg" xmlns:xlink="http://www.w3.org/1999/xlink" x="0px" y="0px" viewBox="0 0 256 256" enable-background="new 0 0 256 256" xml:space="preserve">
<metadata> Svg Vector Icons : http://www.onlinewebfonts.com/icon </metadata>
<g><g><path fill="#000000" d="M56.9,158.2c-20.3-21.6-15.3-48,0.3-63.6c15.4-15.3,42.5-20.8,64.2,0.7c4.5-2.5,9-5,13.5-7.5c-20.6-22.1-15.2-49.5,2.4-65.1c18.3-16.3,43.4-15.7,60.9,1.3c17.2,16.7,20.3,43,0.7,63.9c0.8,0.4,1.5,0.7,2.3,1.1c21.9,11.1,36.7,28.3,43.6,51.9c5.1,17.7-7.5,34.1-25.9,34.1c-23,0-46.1,0-69.1,0h-4.5c1.1,1.2,1.7,1.9,2.4,2.6c8.9,9.6,15.2,20.6,18.8,33.2c5.1,17.8-7.3,34.4-25.8,34.4c-34.8,0.1-69.5,0-104.3,0c-17.5,0-30.2-16.5-25.5-33.4c6.7-23.9,21.5-41.2,43.6-52.5C55.3,158.9,56.1,158.6,56.9,158.2L56.9,158.2z M88.7,230.6c10.1,0,20.2,0,30.3,0c7.5,0,15-0.2,22.5,0c7.8,0.2,13.4-8.3,11.4-14.9c-6.9-23.6-21.5-39.4-45-46.8c-1.3-0.4-2.9-0.3-4.2,0.2c-9.9,3.5-19.7,3.6-29.6,0c-1.3-0.5-3.1-0.6-4.4-0.1c-23,7.2-37.3,22.6-44.5,45.4c-2.6,8.3,3.6,16.5,12.3,16.3C54.6,230.3,71.7,230.6,88.7,230.6L88.7,230.6z M120.8,157.9c2.8,2,5.6,2.6,8.7,2.5c4.3-0.2,8.6,0,12.9,0c25.8,0,51.6,0,77.4,0c7.5,0,13.2-6.8,11.4-13.9c-6.4-24.3-21.4-40.4-45.5-47.9c-1-0.3-2.2-0.3-3.2,0.1c-10.3,3.8-20.5,3.9-30.8,0c-1-0.4-2.5-0.5-3.4,0c-5.6,2.4-11.1,5-16.6,7.5c-1.6,0.7-1.7,1.7-1,3.3c4.1,9.3,4.8,19,1.9,28.8C130.3,145.8,126.3,152.3,120.8,157.9L120.8,157.9z M167.1,87c18,0,30.8-12.8,30.8-30.8c0-17.9-12.9-30.9-30.8-30.9c-18,0-30.8,12.9-30.8,30.9C136.3,74.2,149.1,87,167.1,87L167.1,87z M88.9,95.6c-18,0-30.8,12.6-30.9,30.7c-0.1,17.8,12.7,30.8,30.5,30.9c18.1,0.1,31.2-12.7,31.2-30.5C119.7,108.5,107,95.7,88.9,95.6L88.9,95.6z"/></g></g>
</svg>