<svg width="24" height="24" viewBox="0 0 24 24" fill="none" xmlns="http://www.w3.org/2000/svg">
<path d="M11.244 4.174C11.4755 3.50808 11.5912 3.17513 11.7624 3.08285C11.9105 3.00298 12.0889 3.00298 12.237 3.08285C12.4081 3.17513 12.5239 3.50808 12.7553 4.174L14.2856 8.57639C14.3515 8.76592 14.3844 8.86068 14.4438 8.93125C14.4962 8.99359 14.5631 9.04218 14.6386 9.07278C14.7241 9.10743 14.8244 9.10947 15.025 9.11356L19.6848 9.20852C20.3896 9.22288 20.742 9.23007 20.8827 9.36432C21.0044 9.48051 21.0595 9.65014 21.0294 9.81569C20.9945 10.007 20.7136 10.2199 20.1518 10.6459L16.4377 13.4616C16.2778 13.5829 16.1979 13.6435 16.1491 13.7217C16.106 13.7909 16.0805 13.8695 16.0747 13.9507C16.0682 14.0427 16.0972 14.1387 16.1553 14.3308L17.505 18.7919C17.7091 19.4667 17.8112 19.8041 17.727 19.9793C17.6541 20.131 17.5098 20.2358 17.343 20.2583C17.1503 20.2842 16.861 20.0829 16.2823 19.6802L12.4566 17.0181C12.2919 16.9035 12.2096 16.8462 12.1201 16.8239C12.041 16.8043 11.9584 16.8043 11.8793 16.8239C11.7898 16.8462 11.7074 16.9035 11.5427 17.0181L7.71707 19.6802C7.13839 20.0829 6.84905 20.2842 6.65635 20.2583C6.48958 20.2358 6.34528 20.131 6.2724 19.9793C6.18818 19.8041 6.29025 19.4667 6.4944 18.7919L7.84405 14.3308C7.90215 14.1387 7.93121 14.0427 7.92466 13.9507C7.91889 13.8695 7.89334 13.7909 7.85026 13.7217C7.80148 13.6435 7.72154 13.5829 7.56164 13.4616L3.8476 10.6459C3.28581 10.2199 3.00491 10.007 2.97003 9.81569C2.93985 9.65014 2.99496 9.48051 3.11669 9.36432C3.25734 9.23007 3.60976 9.22289 4.31462 9.20852L8.97442 9.11356C9.17503 9.10947 9.27533 9.10743 9.36079 9.07278C9.43629 9.04218 9.50316 8.99359 9.55559 8.93125C9.61495 8.86068 9.64789 8.76592 9.71377 8.57639L11.244 4.174Z" stroke="black" stroke-linecap="round" stroke-linejoin="round"/>
</svg>
