<svg width="81" height="59" viewBox="0 0 81 59" fill="none" xmlns="http://www.w3.org/2000/svg">
<path d="M13.7257 23.8371V13.8126C13.7257 13.8126 13.1819 11.087 18.3897 10.6496C23.5975 10.2122 75.5062 10.2122 75.5062 10.2122C75.5062 10.2122 79.7769 10.8668 79.5588 14.7915C79.3406 18.7163 79.1194 52.8458 79.1194 52.8458C79.1194 52.8458 78.2438 56.9878 75.1775 57.6424C72.1112 58.297 21.0781 57.6424 21.0781 57.6424C21.0781 57.6424 15.2466 58.9517 13.3447 52.2983L13.7257 23.8371Z" fill="#E6EBF9"/>
<path d="M47.2982 11.7293C38.0072 11.7293 28.7131 11.7262 19.422 11.7293C16.5309 11.7293 15.2159 13.0447 15.2097 15.9355C15.2036 17.9238 15.2189 19.9122 15.2005 21.9006C15.1882 23.1517 14.629 23.8553 13.7257 23.8369C12.8317 23.8186 12.1834 23.0752 12.1803 21.9036C12.1619 16.0915 12.1281 10.2824 12.1957 4.47022C12.2264 1.85781 14.1313 0.108045 16.8166 0.0254511C18.3897 -0.0234933 19.9658 0.013215 21.5389 0.013215C33.3647 0.013215 45.1905 -0.00208014 57.0194 0.0254511C60.3499 0.0346282 63.3916 0.891156 65.7697 3.42097C66.8973 4.62317 67.7299 5.99667 68.0863 7.58431C68.2952 8.51425 68.753 8.72533 69.6041 8.71003C71.7148 8.67332 73.8287 8.69168 75.9394 8.70391C78.9012 8.72227 80.6464 10.4629 80.6495 13.4332C80.6587 26.3545 80.6648 39.2758 80.6556 52.1972C80.6525 56.1158 77.8751 58.9179 73.9331 58.9821C71.7824 59.0158 69.6317 58.9913 67.481 58.9913C51.3938 58.9882 35.3034 58.9913 19.2162 58.9821C15.5723 58.979 12.8839 56.7949 12.2755 53.3657C12.211 52.9956 12.1649 52.5918 12.2448 52.2339C12.4138 51.4967 12.9023 50.995 13.6889 50.9797C14.4754 50.9644 14.9578 51.4294 15.1544 52.188C15.9717 55.3633 16.749 55.969 19.9966 55.969C37.6969 55.9659 55.4002 55.9628 73.1005 55.9598C73.4446 55.9598 73.7918 55.969 74.1359 55.9506C76.1483 55.8344 77.577 54.3966 77.6016 52.3838C77.6323 49.7469 77.574 47.107 77.6293 44.4701C77.6508 43.4453 77.2575 43.1639 76.2774 43.17C70.6702 43.2036 65.0661 43.1883 59.4589 43.1822C55.2497 43.1761 52.4968 40.4107 52.4845 36.1954C52.4783 33.7879 52.4814 31.3774 52.4845 28.97C52.4875 24.1612 55.1114 21.5671 59.9781 21.5671C65.3549 21.5641 70.7286 21.5365 76.1053 21.5855C77.2391 21.5947 77.6876 21.2949 77.6415 20.1049C77.5586 17.9667 77.6293 15.8253 77.617 13.684C77.6077 12.0872 77.2514 11.7293 75.6352 11.7293C66.1906 11.7232 56.7429 11.7262 47.2982 11.7262C47.2982 11.7232 47.2982 11.7262 47.2982 11.7293ZM41.1165 8.70086C44.8771 8.70086 48.6378 8.70086 52.4015 8.70086C56.239 8.70086 60.0765 8.70697 63.9139 8.6978C65.2166 8.69474 65.3303 8.4806 64.7957 7.28147C64.2488 6.0548 63.407 5.09426 62.2732 4.38151C60.6571 3.36591 58.8628 3.04777 56.9917 3.04777C43.9032 3.04471 30.8177 3.04777 17.7291 3.05083C17.3451 3.05083 16.9549 3.02942 16.5831 3.10283C15.7873 3.25884 15.2466 3.72076 15.2282 4.57423C15.1974 5.9875 15.2189 7.40077 15.2097 8.81404C15.2066 9.42279 15.4524 9.55738 15.9901 9.28513C17.1238 8.71615 18.3467 8.68862 19.5849 8.69168C26.7621 8.70391 33.9393 8.6978 41.1165 8.70086ZM67.6008 24.5925C67.6008 24.5894 67.6008 24.5894 67.6008 24.5864C64.7988 24.5864 61.9936 24.568 59.1916 24.5925C57.047 24.6109 55.5446 26.067 55.5231 28.1746C55.4924 30.9645 55.4955 33.7574 55.5231 36.5472C55.5446 38.664 57.0286 40.1415 59.1701 40.1477C64.891 40.1691 70.6118 40.1385 76.3327 40.166C77.2636 40.1691 77.6323 39.8785 77.6231 38.9179C77.5893 34.5588 77.5893 30.2028 77.6262 25.8436C77.6323 24.9015 77.3066 24.5619 76.3542 24.5772C73.4385 24.617 70.5197 24.5925 67.6008 24.5925Z" fill="black"/>
<path d="M13.4062 26.5961C17.0102 26.5961 20.6172 26.5961 24.2212 26.5992C24.6052 26.5992 24.9924 26.5869 25.3672 26.6451C26.1414 26.7644 26.6238 27.2293 26.673 28.0155C26.7221 28.8139 26.2582 29.3217 25.5208 29.5175C25.0845 29.6337 24.6114 29.6215 24.1536 29.6215C16.9825 29.6276 9.81146 29.6276 2.6404 29.6246C2.21948 29.6246 1.78626 29.6429 1.3807 29.5573C0.554219 29.3798 -0.0571952 28.9118 0.00425345 27.9941C0.0657021 27.0947 0.680189 26.6481 1.55583 26.6175C2.62811 26.5839 3.70346 26.5992 4.77574 26.5992C7.65461 26.5961 10.5304 26.5961 13.4062 26.5961Z" fill="black"/>
<path d="M15.8119 38.141C12.8593 38.141 9.90362 38.1502 6.95101 38.138C5.71282 38.1318 5.03074 37.5843 5.03996 36.6513C5.04917 35.8192 5.77734 35.1462 6.88034 35.1401C12.8654 35.1156 18.8475 35.1156 24.8326 35.1401C25.997 35.1462 26.7375 35.8682 26.6822 36.7522C26.6238 37.6455 25.9878 38.1288 24.7865 38.1349C21.7939 38.1471 18.8045 38.141 15.8119 38.141Z" fill="black"/>
<path d="M18.3866 43.8036C20.5311 43.8036 22.6757 43.7944 24.8203 43.8097C26.0031 43.8189 26.6422 44.3236 26.6821 45.2199C26.719 46.0642 26.0124 46.7831 24.9216 46.7922C20.5588 46.8259 16.1929 46.8289 11.8269 46.7892C10.6994 46.78 10.0634 46.1009 10.0941 45.2046C10.1248 44.3083 10.7577 43.8127 11.956 43.8066C14.1005 43.7913 16.242 43.8036 18.3866 43.8036Z" fill="black"/>
<path d="M69.8313 32.3565C69.8375 35.5991 67.3396 38.1228 64.1104 38.1412C60.8322 38.1595 58.2298 35.5838 58.2482 32.3412C58.2667 29.166 60.869 26.6025 64.0674 26.6056C67.2935 26.6117 69.8252 29.1384 69.8313 32.3565ZM66.7865 32.3963C66.7742 30.7689 65.6497 29.6371 64.0459 29.634C62.5066 29.6309 61.2684 30.8851 61.2961 32.4177C61.3237 33.9472 62.4821 35.0913 64.0152 35.1035C65.6528 35.1188 66.7988 33.9992 66.7865 32.3963Z" fill="black"/>
</svg>
