<svg width="24" height="25" viewBox="0 0 24 25" fill="none" xmlns="http://www.w3.org/2000/svg">
<path d="M22 6.60156L16 6.60156" stroke="black" stroke-width="1.5" stroke-miterlimit="10" stroke-linecap="round" stroke-linejoin="round"/>
<path d="M6 6.60156L2 6.60156" stroke="black" stroke-width="1.5" stroke-miterlimit="10" stroke-linecap="round" stroke-linejoin="round"/>
<path d="M10 10.1562C11.933 10.1562 13.5 8.56476 13.5 6.60156C13.5 4.63836 11.933 3.04688 10 3.04688C8.067 3.04688 6.5 4.63836 6.5 6.60156C6.5 8.56476 8.067 10.1562 10 10.1562Z" stroke="black" stroke-width="1.5" stroke-miterlimit="10" stroke-linecap="round" stroke-linejoin="round"/>
<path d="M22 17.7734H18" stroke="black" stroke-width="1.5" stroke-miterlimit="10" stroke-linecap="round" stroke-linejoin="round"/>
<path d="M8 17.7734H2" stroke="black" stroke-width="1.5" stroke-miterlimit="10" stroke-linecap="round" stroke-linejoin="round"/>
<path d="M14 21.3281C15.933 21.3281 17.5 19.7366 17.5 17.7734C17.5 15.8102 15.933 14.2188 14 14.2188C12.067 14.2188 10.5 15.8102 10.5 17.7734C10.5 19.7366 12.067 21.3281 14 21.3281Z" stroke="black" stroke-width="1.5" stroke-miterlimit="10" stroke-linecap="round" stroke-linejoin="round"/>
</svg>
