<svg width="14" height="14" viewBox="0 0 14 14" fill="none" xmlns="http://www.w3.org/2000/svg">
<path d="M6.55921 2.43487C6.69423 2.04642 6.76174 1.8522 6.86158 1.79837C6.94798 1.75178 7.05202 1.75178 7.13843 1.79837C7.23826 1.8522 7.30577 2.04642 7.4408 2.43487L8.33346 5.00294C8.37189 5.11349 8.3911 5.16877 8.42573 5.20994C8.45631 5.2463 8.49532 5.27465 8.53936 5.2925C8.58921 5.31271 8.64772 5.3139 8.76474 5.31628L11.483 5.37168C11.8941 5.38006 12.0997 5.38425 12.1818 5.46256C12.2528 5.53034 12.2849 5.62929 12.2673 5.72586C12.247 5.83744 12.0831 5.96167 11.7554 6.21012L9.58886 7.85266C9.49559 7.92338 9.44896 7.95873 9.42051 8.00439C9.39537 8.04471 9.38047 8.09057 9.3771 8.13797C9.37329 8.19163 9.39023 8.24764 9.42413 8.35967L10.2114 10.962C10.3305 11.3556 10.3901 11.5524 10.3409 11.6546C10.2984 11.7431 10.2142 11.8043 10.117 11.8174C10.0045 11.8325 9.83576 11.7151 9.4982 11.4802L7.26655 9.92724C7.17048 9.86039 7.12244 9.82696 7.07023 9.81401C7.02411 9.80257 6.97589 9.80257 6.92977 9.81401C6.87756 9.82696 6.82953 9.86039 6.73345 9.92724L4.50181 11.4802C4.16424 11.7151 3.99546 11.8325 3.88306 11.8174C3.78577 11.8043 3.7016 11.7431 3.65908 11.6546C3.60995 11.5524 3.6695 11.3556 3.78859 10.962L4.57588 8.35967C4.60977 8.24764 4.62672 8.19163 4.6229 8.13797C4.61953 8.09057 4.60463 8.04471 4.5795 8.00439C4.55105 7.95873 4.50441 7.92338 4.41114 7.85266L2.24462 6.21012C1.9169 5.96167 1.75305 5.83744 1.7327 5.72586C1.71509 5.62929 1.74724 5.53034 1.81825 5.46256C1.9003 5.38425 2.10588 5.38006 2.51704 5.37168L5.23526 5.31628C5.35228 5.3139 5.41079 5.31271 5.46064 5.2925C5.50468 5.27465 5.54369 5.2463 5.57428 5.20994C5.6089 5.16877 5.62812 5.11349 5.66655 5.00294L6.55921 2.43487Z" fill="#FFC107"/>
</svg>
