<svg width="20" height="20" viewBox="0 0 20 20" fill="none" xmlns="http://www.w3.org/2000/svg">
<path d="M15.6884 12.3331L15.6897 12.3353C15.935 12.7378 15.9776 13.2102 15.8154 13.6404C15.6504 14.0784 15.3122 14.4071 14.8773 14.5501L14.8772 14.5501L14.8745 14.551C13.3109 15.0749 11.6647 15.3334 10.0167 15.3334C8.36867 15.3334 6.72328 15.0749 5.16103 14.5434L5.16003 14.5431C4.66631 14.3763 4.32024 14.0423 4.17904 13.6481L4.17905 13.6481L4.17762 13.6442C4.02724 13.2352 4.07262 12.7759 4.33695 12.3325C4.33718 12.3321 4.33741 12.3318 4.33764 12.3314L5.17783 10.9422L5.17789 10.9422L5.18188 10.9353C5.30006 10.7328 5.39736 10.4656 5.46477 10.2177C5.53208 9.97015 5.58333 9.69119 5.58333 9.45842L5.58333 7.35008C5.58333 5.61579 6.59244 4.10912 8.05601 3.38109L8.19434 3.31228L8.26974 3.17743C8.61595 2.55825 9.26698 2.16675 9.99166 2.16675C10.7289 2.16675 11.3622 2.54548 11.7064 3.15444L11.784 3.29171L11.9263 3.35964C13.4182 4.07186 14.45 5.59257 14.45 7.35008V9.45842C14.45 9.69118 14.5012 9.97009 14.5684 10.2182C14.6359 10.4675 14.7326 10.7343 14.8485 10.9386L14.8483 10.9386L14.855 10.9498L15.6884 12.3331Z" stroke="#26328F"/>
<path d="M10 17.8334C9.4904 17.8334 8.98882 17.6328 8.62992 17.2816C9.08535 17.3192 9.55005 17.3417 10.0167 17.3417C10.4753 17.3417 10.932 17.3193 11.3794 17.2816C11.0189 17.6239 10.5328 17.8334 10 17.8334Z" stroke="black"/>
</svg>
