<svg width="16" height="16" viewBox="0 0 16 16" fill="none" xmlns="http://www.w3.org/2000/svg">
<path d="M7.49603 2.7825C7.65034 2.33856 7.7275 2.11659 7.8416 2.05507C7.94034 2.00183 8.05925 2.00183 8.15799 2.05507C8.27209 2.11659 8.34925 2.33856 8.50356 2.7825L9.52374 5.71743C9.56766 5.84378 9.58962 5.90696 9.62919 5.95401C9.66415 5.99557 9.70873 6.02796 9.75906 6.04836C9.81603 6.07146 9.8829 6.07282 10.0166 6.07554L13.1232 6.13885C13.5931 6.14843 13.828 6.15321 13.9218 6.24272C14.0029 6.32018 14.0397 6.43326 14.0196 6.54363C13.9963 6.67115 13.8091 6.81312 13.4345 7.09707L10.9585 8.97426C10.8519 9.05508 10.7986 9.09549 10.7661 9.14766C10.7374 9.19375 10.7203 9.24616 10.7165 9.30033C10.7121 9.36165 10.7315 9.42567 10.7702 9.5537L11.67 12.5278C11.8061 12.9776 11.8741 13.2025 11.818 13.3194C11.7694 13.4205 11.6732 13.4904 11.562 13.5054C11.4336 13.5227 11.2407 13.3884 10.8549 13.12L8.30442 11.3452C8.19462 11.2688 8.13973 11.2306 8.08006 11.2158C8.02735 11.2027 7.97224 11.2027 7.91953 11.2158C7.85986 11.2306 7.80496 11.2688 7.69517 11.3452L5.14472 13.12C4.75893 13.3884 4.56603 13.5227 4.43757 13.5054C4.32639 13.4904 4.23019 13.4205 4.1816 13.3194C4.12545 13.2025 4.1935 12.9776 4.3296 12.5278L5.22937 9.5537C5.2681 9.42567 5.28747 9.36165 5.28311 9.30033C5.27926 9.24616 5.26223 9.19375 5.23351 9.14766C5.20099 9.09549 5.14769 9.05508 5.0411 8.97426L2.56507 7.09707C2.19054 6.81312 2.00327 6.67115 1.98002 6.54363C1.9599 6.43326 1.99664 6.32018 2.07779 6.24272C2.17156 6.15321 2.40651 6.14843 2.87641 6.13885L5.98295 6.07554C6.11668 6.07282 6.18355 6.07146 6.24053 6.04836C6.29086 6.02796 6.33544 5.99557 6.3704 5.95401C6.40997 5.90696 6.43193 5.84378 6.47585 5.71743L7.49603 2.7825Z" fill="#26328F"/>
</svg>
