<svg width="22" height="22" viewBox="0 0 22 22" fill="none" xmlns="http://www.w3.org/2000/svg">
<path d="M17.3 13.5407L17.3014 13.5428C17.5791 13.9987 17.6276 14.5344 17.4438 15.0222C17.2571 15.5176 16.8739 15.8906 16.3806 16.0526L16.3806 16.0526L16.3778 16.0536C14.6526 16.6316 12.8363 16.9168 11.0183 16.9168C9.20034 16.9168 7.38495 16.6316 5.66104 16.0451L5.66003 16.0448C5.10465 15.8572 4.71108 15.4799 4.54988 15.0299L4.54989 15.0299L4.54845 15.026C4.37725 14.5603 4.43012 14.0394 4.72778 13.5401C4.72801 13.5397 4.72824 13.5394 4.72848 13.539L5.65284 12.0106L5.65289 12.0106L5.65689 12.0038C5.78381 11.7862 5.88945 11.497 5.963 11.2264C6.03646 10.9563 6.09167 10.6542 6.09167 10.4043V8.08516C6.09167 6.15753 7.21328 4.48337 8.83935 3.6745L8.97768 3.60569L9.05308 3.47085C9.44262 2.77416 10.1753 2.3335 10.9908 2.3335C11.8198 2.3335 12.533 2.75973 12.9205 3.44536L12.9981 3.58262L13.1404 3.65055C14.7982 4.44194 15.945 6.13182 15.945 8.08516V10.4043C15.945 10.6542 16.0002 10.9562 16.0735 11.227C16.1471 11.499 16.2522 11.7882 16.3768 12.0078L16.3767 12.0079L16.3834 12.019L17.3 13.5407Z" stroke="black"/>
<path d="M9.39863 18.9862C9.38542 18.9738 9.37237 18.9612 9.35949 18.9483L9.3888 18.9507C9.38916 18.9508 9.38951 18.9508 9.38987 18.9508C9.9239 18.9977 10.47 19.026 11.0183 19.026C11.5582 19.026 12.0957 18.9976 12.6211 18.9507L12.6211 18.9507L12.6241 18.9504C12.6321 18.9496 12.6404 18.9489 12.6489 18.9481C12.2359 19.3907 11.6488 19.6668 11 19.6668C10.4069 19.6668 9.82324 19.4254 9.41647 19.0038L9.40777 18.9948L9.39863 18.9862Z" stroke="black"/>
</svg>
