<svg width="22" height="22" viewBox="0 0 22 22" fill="none" xmlns="http://www.w3.org/2000/svg">
<path d="M4.47012 4.21575C4.60588 3.60508 4.94578 3.05894 5.43374 2.66747C5.9217 2.276 6.52855 2.06261 7.15413 2.0625H14.8452C15.4709 2.06245 16.0779 2.27578 16.566 2.66726C17.0541 3.05874 17.3941 3.60496 17.5299 4.21575L17.9678 6.1875H18.5625C18.7448 6.1875 18.9197 6.25993 19.0486 6.38886C19.1776 6.5178 19.25 6.69266 19.25 6.875C19.25 7.05734 19.1776 7.2322 19.0486 7.36114C18.9197 7.49007 18.7448 7.5625 18.5625 7.5625H18.2737L18.5006 8.58344C18.9354 8.81971 19.2983 9.16891 19.5512 9.59422C19.8041 10.0195 19.9376 10.5052 19.9375 11V17.875C19.9375 18.422 19.7202 18.9466 19.3334 19.3334C18.9466 19.7202 18.422 19.9375 17.875 19.9375H17.1875C16.6405 19.9375 16.1159 19.7202 15.7291 19.3334C15.3423 18.9466 15.125 18.422 15.125 17.875V17.1875H6.875V17.875C6.875 18.422 6.6577 18.9466 6.27091 19.3334C5.88411 19.7202 5.35951 19.9375 4.8125 19.9375H4.125C3.57799 19.9375 3.05339 19.7202 2.66659 19.3334C2.2798 18.9466 2.0625 18.422 2.0625 17.875V11C2.06244 10.5052 2.19589 10.0195 2.44878 9.59422C2.70166 9.16891 3.06462 8.81971 3.49938 8.58344L3.72625 7.5625H3.4375C3.25516 7.5625 3.0803 7.49007 2.95136 7.36114C2.82243 7.2322 2.75 7.05734 2.75 6.875C2.75 6.69266 2.82243 6.5178 2.95136 6.38886C3.0803 6.25993 3.25516 6.1875 3.4375 6.1875H4.0315L4.47012 4.21575ZM16.1879 4.51412C16.12 4.20867 15.9499 3.93552 15.7058 3.73977C15.4617 3.54402 15.1581 3.4374 14.8452 3.4375H7.15413C6.84134 3.43755 6.53791 3.54425 6.29393 3.73999C6.04995 3.93572 5.88 4.20879 5.81213 4.51412L4.98231 8.25H17.0177L16.1879 4.51412ZM16.5 17.1875V17.875C16.5 18.0573 16.5724 18.2322 16.7014 18.3611C16.8303 18.4901 17.0052 18.5625 17.1875 18.5625H17.875C18.0573 18.5625 18.2322 18.4901 18.3611 18.3611C18.4901 18.2322 18.5625 18.0573 18.5625 17.875V17.1875H16.5ZM3.4375 17.1875V17.875C3.4375 18.0573 3.50993 18.2322 3.63886 18.3611C3.7678 18.4901 3.94266 18.5625 4.125 18.5625H4.8125C4.99484 18.5625 5.1697 18.4901 5.29864 18.3611C5.42757 18.2322 5.5 18.0573 5.5 17.875V17.1875H3.4375ZM4.8125 9.625C4.44783 9.625 4.09809 9.76987 3.84023 10.0277C3.58237 10.2856 3.4375 10.6353 3.4375 11V15.8125H18.5625V11C18.5625 10.6353 18.4176 10.2856 18.1598 10.0277C17.9019 9.76987 17.5522 9.625 17.1875 9.625H4.8125ZM9.28125 13.0625C9.09891 13.0625 8.92405 13.1349 8.79511 13.2639C8.66618 13.3928 8.59375 13.5677 8.59375 13.75C8.59375 13.9323 8.66618 14.1072 8.79511 14.2361C8.92405 14.3651 9.09891 14.4375 9.28125 14.4375H12.7188C12.9011 14.4375 13.076 14.3651 13.2049 14.2361C13.3338 14.1072 13.4062 13.9323 13.4062 13.75C13.4062 13.5677 13.3338 13.3928 13.2049 13.2639C13.076 13.1349 12.9011 13.0625 12.7188 13.0625H9.28125ZM7.5625 12.0312C7.5625 12.3048 7.45385 12.5671 7.26045 12.7605C7.06706 12.9539 6.80475 13.0625 6.53125 13.0625C6.25775 13.0625 5.99544 12.9539 5.80205 12.7605C5.60865 12.5671 5.5 12.3048 5.5 12.0312C5.5 11.7577 5.60865 11.4954 5.80205 11.302C5.99544 11.1086 6.25775 11 6.53125 11C6.80475 11 7.06706 11.1086 7.26045 11.302C7.45385 11.4954 7.5625 11.7577 7.5625 12.0312ZM15.4688 13.0625C15.7423 13.0625 16.0046 12.9539 16.198 12.7605C16.3914 12.5671 16.5 12.3048 16.5 12.0312C16.5 11.7577 16.3914 11.4954 16.198 11.302C16.0046 11.1086 15.7423 11 15.4688 11C15.1952 11 14.9329 11.1086 14.7395 11.302C14.5461 11.4954 14.4375 11.7577 14.4375 12.0312C14.4375 12.3048 14.5461 12.5671 14.7395 12.7605C14.9329 12.9539 15.1952 13.0625 15.4688 13.0625Z" fill="black"/>
</svg>
