<svg width="16" height="16" viewBox="0 0 16 16" fill="none" xmlns="http://www.w3.org/2000/svg">
<path d="M7.49603 2.78299C7.65034 2.33905 7.7275 2.11708 7.8416 2.05556C7.94034 2.00231 8.05925 2.00231 8.15799 2.05556C8.27209 2.11708 8.34925 2.33905 8.50356 2.78299L9.52374 5.71792C9.56766 5.84427 9.58962 5.90745 9.62919 5.95449C9.66415 5.99606 9.70873 6.02845 9.75906 6.04885C9.81603 6.07195 9.8829 6.07331 10.0166 6.07603L13.1232 6.13934C13.5931 6.14892 13.828 6.1537 13.9218 6.2432C14.0029 6.32066 14.0397 6.43375 14.0196 6.54412C13.9963 6.67164 13.8091 6.81361 13.4345 7.09756L10.9585 8.97475C10.8519 9.05557 10.7986 9.09597 10.7661 9.14815C10.7374 9.19424 10.7203 9.24665 10.7165 9.30082C10.7121 9.36214 10.7315 9.42616 10.7702 9.55419L11.67 12.5282C11.8061 12.9781 11.8741 13.203 11.818 13.3199C11.7694 13.421 11.6732 13.4909 11.562 13.5058C11.4336 13.5231 11.2407 13.3889 10.8549 13.1205L8.30442 11.3457C8.19462 11.2693 8.13973 11.2311 8.08006 11.2163C8.02735 11.2032 7.97224 11.2032 7.91953 11.2163C7.85986 11.2311 7.80496 11.2693 7.69517 11.3457L5.14472 13.1205C4.75893 13.3889 4.56603 13.5231 4.43757 13.5058C4.32639 13.4909 4.23019 13.421 4.1816 13.3199C4.12545 13.203 4.1935 12.9781 4.3296 12.5282L5.22937 9.55419C5.2681 9.42616 5.28747 9.36214 5.28311 9.30082C5.27926 9.24665 5.26223 9.19424 5.23351 9.14815C5.20099 9.09597 5.14769 9.05557 5.0411 8.97475L2.56507 7.09756C2.19054 6.81361 2.00327 6.67164 1.98002 6.54412C1.9599 6.43375 1.99664 6.32066 2.07779 6.2432C2.17156 6.1537 2.40651 6.14892 2.87641 6.13934L5.98295 6.07603C6.11668 6.07331 6.18355 6.07195 6.24053 6.04885C6.29086 6.02845 6.33544 5.99606 6.3704 5.95449C6.40997 5.90745 6.43193 5.84427 6.47585 5.71792L7.49603 2.78299Z" fill="white"/>
</svg>
